<svg xmlns="http://www.w3.org/2000/svg" viewBox="0 0 500 500"><g id="freepik--background-complete--inject-11"><polygon points="252.5 415.71 253.09 414.71 243.91 416.69 252.5 472.92 257.58 472.92 252.5 415.71" style="fill:#e0e0e0"></polygon><path d="M191.82,362.16a6.86,6.86,0,0,0-5.33,7c.28,7.31,1.2,20.11,4.1,27.61,4.23,10.93,5.29,15.16,13.4,14.81s122.4,0,122.4,0,10.23.35,14.46-14.46,13.76-72.31,8.47-82.54-27.87-13.41-37.74-12.7-28.2-2.14-52.19,27.84l-23.65,27A221.47,221.47,0,0,0,191.82,362.16Z" style="fill:#ebebeb"></path><path d="M270.92,317.24l-22.84,64H205.76s-3.35-21.5-9.5-20c0,0,31-5.16,39.48-4.6Z" style="fill:#e0e0e0"></path><path d="M285.12,412s4.59-6,6.7-17,7.41-34.22-3.35-33.87c0,0,31.22,1,37.57-4.09s24.15-39.42,24.15-39.42,1.71,12.92-.94,32-6.38,41.85-8.84,48.64c-1.86,5.12-5,12.44-14,13.21C316.9,412.36,285.12,412,285.12,412Z" style="fill:#e0e0e0"></path><path d="M205.38,411.44s2.1,6.42,15.41,6.42h90.85s11.52-.25,14.75-6.45Z" style="fill:#e0e0e0"></path><path d="M291.82,395.09a1.37,1.37,0,0,1,.06-.34c.06-.25.13-.56.23-1,.2-.89.48-2.12.83-3.69a95.75,95.75,0,0,0,2-13.78,30.73,30.73,0,0,0-.65-9.51,7.63,7.63,0,0,0-2.66-4.34c-1.42-1.1-3.42-1.07-5.27-.77a11.27,11.27,0,0,0-5.22,2.5,17.47,17.47,0,0,0-3.88,4.74,36.38,36.38,0,0,0-4.12,12.31l0,.28H272l-46.81-.1L211,381.34l-3.86-.06-1,0a1.44,1.44,0,0,1-.34,0s.11,0,.34,0l1,0,3.86-.06,14.18-.09,46.81-.1h.92l-.31.27a36.52,36.52,0,0,1,4.21-12.54,17.91,17.91,0,0,1,4-4.9,12,12,0,0,1,5.49-2.6,10.79,10.79,0,0,1,1.48-.16l.74,0,.74.07a6.58,6.58,0,0,1,1.45.31c.23.09.44.22.66.32a2.29,2.29,0,0,1,.62.38,8.1,8.1,0,0,1,2.84,4.66,30.85,30.85,0,0,1,.59,9.67,89.4,89.4,0,0,1-2.22,13.8c-.38,1.6-.71,2.84-.95,3.67-.12.39-.21.7-.29.95A1.72,1.72,0,0,1,291.82,395.09Z" style="fill:#e0e0e0"></path><polygon points="212.84 414.71 213.42 415.71 208.35 472.92 213.42 472.92 222.01 416.69 212.84 414.71" style="fill:#e0e0e0"></polygon><polygon points="277.27 415.71 277.86 414.71 268.68 416.69 277.27 472.92 282.35 472.92 277.27 415.71" style="fill:#e0e0e0"></polygon><polygon points="312.45 415.71 313.04 414.71 303.86 416.69 317.53 472.92 322.6 472.92 312.45 415.71" style="fill:#e0e0e0"></polygon><rect x="82.3" y="44.35" width="74.18" height="122.79" style="fill:#e0e0e0"></rect><rect x="79.84" y="44.35" width="74.18" height="122.79" style="fill:#ebebeb"></rect><rect x="83" y="46.84" width="67.86" height="117.81" style="fill:#fafafa"></rect><rect x="95.92" y="62.15" width="41.73" height="87.19" style="fill:#ebebeb"></rect><path d="M95.92,118.48c-.1-8.14,7.22-16.09,15.29-17.23,3.84-.54,7.93.22,11.53-1.25,6.41-2.63,8.45-11.15,14.91-13.68l.29,63h-42Z" style="fill:#e0e0e0"></path><polygon points="247.63 92.73 47.96 357.43 70.22 361.79 440.26 357.24 456.42 229.82 247.92 229.82 247.63 92.73" style="fill:#fafafa"></polygon><rect x="251.09" y="39.26" width="202.22" height="187.37" style="fill:#f5f5f5"></rect><path d="M456.31,229.62H248.09V36.26H456.31Zm-202.22-6H450.31V42.26H254.09Z" style="fill:#e0e0e0"></path><rect x="352.17" y="35.76" width="5.24" height="190.9" style="fill:#e0e0e0"></rect><rect x="232.77" y="81.72" width="238.44" height="7.07" style="fill:#ebebeb"></rect><rect x="232.77" y="68.31" width="238.44" height="7.07" style="fill:#ebebeb"></rect><rect x="232.77" y="54.91" width="238.44" height="7.07" style="fill:#ebebeb"></rect><rect x="232.77" y="41.5" width="238.44" height="7.07" style="fill:#ebebeb"></rect><rect x="232.77" y="30.43" width="238.44" height="7.07" style="fill:#ebebeb"></rect><rect x="263.26" y="134.59" width="33.73" height="89.04" style="fill:#ebebeb"></rect><rect x="280.13" y="134.59" width="16.86" height="89.04" style="fill:#e0e0e0"></rect><rect x="267.12" y="124.1" width="11.91" height="10.49" style="fill:#f5f5f5"></rect><rect x="276.19" y="124.1" width="2.84" height="10.49" style="fill:#ebebeb"></rect><polyline points="260.45 134.59 260.45 133.98 297.98 133.98 297.98 134.59" style="fill:#e0e0e0"></polyline><rect x="269.92" y="139.17" width="2.85" height="6.02" style="fill:#fafafa"></rect><path d="M280.13,147.55c0,.06-3.78.11-8.43.11s-8.44,0-8.44-.11,3.78-.12,8.44-.12S280.13,147.49,280.13,147.55Z" style="fill:#e0e0e0"></path><rect x="286.93" y="139.17" width="2.85" height="6.02" style="fill:#ebebeb"></rect><path d="M297.14,147.55c0,.06-3.78.11-8.43.11s-8.44,0-8.44-.11,3.78-.12,8.44-.12S297.14,147.49,297.14,147.55Z" style="fill:#ebebeb"></path><rect x="286.93" y="151.12" width="2.85" height="6.02" style="fill:#ebebeb"></rect><path d="M297.14,159.5c0,.06-3.78.12-8.43.12s-8.44-.06-8.44-.12,3.78-.11,8.44-.11S297.14,159.44,297.14,159.5Z" style="fill:#ebebeb"></path><rect x="286.93" y="163.43" width="2.85" height="6.02" style="fill:#ebebeb"></rect><path d="M297.14,171.81c0,.07-3.78.12-8.43.12s-8.44-.05-8.44-.12,3.78-.11,8.44-.11S297.14,171.75,297.14,171.81Z" style="fill:#ebebeb"></path><rect x="286.93" y="175.74" width="2.85" height="6.02" style="fill:#ebebeb"></rect><path d="M297.14,184.12c0,.07-3.78.12-8.43.12s-8.44-.05-8.44-.12,3.78-.11,8.44-.11S297.14,184.06,297.14,184.12Z" style="fill:#ebebeb"></path><rect x="286.93" y="187.7" width="2.85" height="6.02" style="fill:#ebebeb"></rect><path d="M297.14,196.08c0,.07-3.78.12-8.43.12s-8.44,0-8.44-.12,3.78-.11,8.44-.11S297.14,196,297.14,196.08Z" style="fill:#ebebeb"></path><rect x="286.93" y="199.71" width="2.85" height="6.02" style="fill:#ebebeb"></rect><rect x="286.93" y="211.88" width="2.85" height="6.02" style="fill:#ebebeb"></rect><path d="M297.14,208.09c0,.07-3.78.12-8.43.12s-8.44-.05-8.44-.12,3.78-.11,8.44-.11S297.14,208,297.14,208.09Z" style="fill:#ebebeb"></path><rect x="269.92" y="151.3" width="2.85" height="6.02" style="fill:#fafafa"></rect><path d="M280.13,159.68c0,.07-3.78.12-8.43.12s-8.44-.05-8.44-.12,3.78-.11,8.44-.11S280.13,159.62,280.13,159.68Z" style="fill:#e0e0e0"></path><rect x="269.92" y="163.43" width="2.85" height="6.02" style="fill:#fafafa"></rect><path d="M280.13,171.82c0,.06-3.78.11-8.43.11s-8.44-.05-8.44-.11,3.78-.12,8.44-.12S280.13,171.75,280.13,171.82Z" style="fill:#e0e0e0"></path><rect x="269.92" y="175.57" width="2.85" height="6.02" style="fill:#fafafa"></rect><path d="M280.13,184c0,.06-3.78.12-8.43.12s-8.44-.06-8.44-.12,3.78-.11,8.44-.11S280.13,183.89,280.13,184Z" style="fill:#e0e0e0"></path><rect x="269.92" y="187.7" width="2.85" height="6.02" style="fill:#fafafa"></rect><path d="M280.13,196.08c0,.07-3.78.12-8.43.12s-8.44,0-8.44-.12S267,196,271.7,196,280.13,196,280.13,196.08Z" style="fill:#e0e0e0"></path><rect x="269.92" y="199.84" width="2.85" height="6.02" style="fill:#fafafa"></rect><path d="M280.13,208.22c0,.06-3.78.11-8.43.11s-8.44-.05-8.44-.11,3.78-.12,8.44-.12S280.13,208.15,280.13,208.22Z" style="fill:#e0e0e0"></path><rect x="269.92" y="211.97" width="2.85" height="6.02" style="fill:#fafafa"></rect><rect x="371.86" y="166.53" width="33.73" height="57.1" style="fill:#ebebeb"></rect><rect x="388.72" y="166.53" width="16.86" height="57.1" style="fill:#e0e0e0"></rect><rect x="375.71" y="155.96" width="11.91" height="10.57" style="fill:#f5f5f5"></rect><rect x="384.78" y="155.96" width="2.84" height="10.57" style="fill:#ebebeb"></rect><polyline points="369.05 166.53 369.05 165.91 406.57 165.91 406.57 166.53" style="fill:#e0e0e0"></polyline><rect x="378.52" y="171.14" width="2.85" height="6.06" style="fill:#fafafa"></rect><path d="M388.72,179.58c0,.07-3.77.12-8.43.12s-8.43,0-8.43-.12,3.77-.11,8.43-.11S388.72,179.52,388.72,179.58Z" style="fill:#e0e0e0"></path><rect x="395.53" y="171.14" width="2.85" height="6.06" style="fill:#ebebeb"></rect><path d="M405.73,179.58c0,.07-3.77.12-8.43.12s-8.43,0-8.43-.12,3.77-.11,8.43-.11S405.73,179.52,405.73,179.58Z" style="fill:#ebebeb"></path><rect x="395.53" y="183.18" width="2.85" height="6.06" style="fill:#ebebeb"></rect><path d="M405.73,191.62c0,.06-3.77.11-8.43.11s-8.43,0-8.43-.11,3.77-.12,8.43-.12S405.73,191.55,405.73,191.62Z" style="fill:#ebebeb"></path><rect x="395.53" y="195.58" width="2.85" height="6.06" style="fill:#ebebeb"></rect><path d="M405.73,204c0,.06-3.77.11-8.43.11s-8.43,0-8.43-.11,3.77-.12,8.43-.12S405.73,204,405.73,204Z" style="fill:#ebebeb"></path><rect x="395.53" y="207.97" width="2.85" height="6.06" style="fill:#ebebeb"></rect><path d="M405.73,216.42c0,.06-3.77.11-8.43.11s-8.43-.05-8.43-.11,3.77-.12,8.43-.12S405.73,216.35,405.73,216.42Z" style="fill:#ebebeb"></path><rect x="378.52" y="183.36" width="2.85" height="6.06" style="fill:#fafafa"></rect><path d="M388.72,191.8c0,.07-3.77.12-8.43.12s-8.43,0-8.43-.12,3.77-.11,8.43-.11S388.72,191.74,388.72,191.8Z" style="fill:#e0e0e0"></path><rect x="378.52" y="195.58" width="2.85" height="6.06" style="fill:#fafafa"></rect><path d="M388.72,204c0,.06-3.77.12-8.43.12s-8.43-.06-8.43-.12,3.77-.11,8.43-.11S388.72,204,388.72,204Z" style="fill:#e0e0e0"></path><rect x="378.52" y="207.8" width="2.85" height="6.06" style="fill:#fafafa"></rect><path d="M388.72,216.24c0,.06-3.77.12-8.43.12s-8.43-.06-8.43-.12,3.77-.11,8.43-.11S388.72,216.18,388.72,216.24Z" style="fill:#e0e0e0"></path><rect x="316.75" y="106.71" width="20.69" height="116.92" style="fill:#ebebeb"></rect><rect x="327.09" y="106.71" width="10.35" height="116.92" style="fill:#e0e0e0"></rect><rect x="319.11" y="100.27" width="7.31" height="6.44" style="fill:#f5f5f5"></rect><rect x="324.68" y="100.27" width="1.74" height="6.44" style="fill:#ebebeb"></rect><polyline points="315.02 106.71 315.02 106.33 338.05 106.33 338.05 106.71" style="fill:#e0e0e0"></polyline><rect x="320.83" y="109.52" width="1.75" height="3.69" style="fill:#fafafa"></rect><path d="M327.09,114.66s-2.31.07-5.17.07-5.17,0-5.17-.07,2.31-.07,5.17-.07S327.09,114.62,327.09,114.66Z" style="fill:#e0e0e0"></path><rect x="331.27" y="109.52" width="1.75" height="3.69" style="fill:#ebebeb"></rect><path d="M337.53,114.66s-2.31.07-5.17.07-5.17,0-5.17-.07,2.31-.07,5.17-.07S337.53,114.62,337.53,114.66Z" style="fill:#ebebeb"></path><rect x="331.27" y="116.85" width="1.75" height="3.69" style="fill:#ebebeb"></rect><path d="M337.53,122s-2.31.07-5.17.07-5.17,0-5.17-.07,2.31-.07,5.17-.07S337.53,122,337.53,122Z" style="fill:#ebebeb"></path><rect x="331.27" y="124.4" width="1.75" height="3.69" style="fill:#ebebeb"></rect><path d="M337.53,129.55s-2.31.07-5.17.07-5.17,0-5.17-.07,2.31-.07,5.17-.07S337.53,129.51,337.53,129.55Z" style="fill:#ebebeb"></path><rect x="331.27" y="131.96" width="1.75" height="3.69" style="fill:#ebebeb"></rect><path d="M337.53,137.1s-2.31.07-5.17.07-5.17,0-5.17-.07,2.31-.07,5.17-.07S337.53,137.06,337.53,137.1Z" style="fill:#ebebeb"></path><rect x="331.27" y="139.3" width="1.75" height="3.69" style="fill:#ebebeb"></rect><path d="M337.53,144.44s-2.31.07-5.17.07-5.17,0-5.17-.07,2.31-.07,5.17-.07S337.53,144.4,337.53,144.44Z" style="fill:#ebebeb"></path><rect x="331.27" y="154.13" width="1.75" height="3.69" style="fill:#ebebeb"></rect><path d="M337.53,151.81s-2.31.07-5.17.07-5.17,0-5.17-.07,2.31-.07,5.17-.07S337.53,151.77,337.53,151.81Z" style="fill:#ebebeb"></path><rect x="320.83" y="116.96" width="1.75" height="3.69" style="fill:#fafafa"></rect><path d="M327.09,122.1s-2.31.08-5.17.08-5.17,0-5.17-.08,2.31-.07,5.17-.07S327.09,122.07,327.09,122.1Z" style="fill:#e0e0e0"></path><rect x="320.83" y="124.41" width="1.75" height="3.69" style="fill:#fafafa"></rect><path d="M327.09,129.55s-2.31.07-5.17.07-5.17,0-5.17-.07,2.31-.07,5.17-.07S327.09,129.51,327.09,129.55Z" style="fill:#e0e0e0"></path><rect x="320.83" y="131.85" width="1.75" height="3.69" style="fill:#fafafa"></rect><path d="M327.09,137s-2.31.07-5.17.07-5.17,0-5.17-.07,2.31-.08,5.17-.08S327.09,137,327.09,137Z" style="fill:#e0e0e0"></path><rect x="320.83" y="139.3" width="1.75" height="3.69" style="fill:#fafafa"></rect><path d="M327.09,144.44s-2.31.07-5.17.07-5.17,0-5.17-.07,2.31-.07,5.17-.07S327.09,144.4,327.09,144.44Z" style="fill:#e0e0e0"></path><rect x="320.83" y="146.74" width="1.75" height="3.69" style="fill:#fafafa"></rect><path d="M327.09,151.89s-2.31.07-5.17.07-5.17,0-5.17-.07,2.31-.07,5.17-.07S327.09,151.85,327.09,151.89Z" style="fill:#e0e0e0"></path><rect x="320.83" y="154.19" width="1.75" height="3.69" style="fill:#fafafa"></rect><rect x="331.27" y="163.36" width="1.75" height="3.69" style="fill:#ebebeb"></rect><path d="M337.53,161s-2.32.07-5.17.07-5.18,0-5.18-.07,2.32-.07,5.18-.07S337.53,161,337.53,161Z" style="fill:#ebebeb"></path><path d="M327.09,161.11s-2.31.07-5.17.07-5.17,0-5.17-.07,2.31-.07,5.17-.07S327.09,161.07,327.09,161.11Z" style="fill:#e0e0e0"></path><rect x="320.83" y="163.42" width="1.75" height="3.69" style="fill:#fafafa"></rect><rect x="331.26" y="172.59" width="1.75" height="3.69" style="fill:#ebebeb"></rect><path d="M337.53,170.26s-2.32.07-5.18.07-5.17,0-5.17-.07,2.32-.07,5.17-.07S337.53,170.23,337.53,170.26Z" style="fill:#ebebeb"></path><path d="M327.09,170.34s-2.32.07-5.17.07-5.18,0-5.18-.07,2.32-.07,5.18-.07S327.09,170.3,327.09,170.34Z" style="fill:#e0e0e0"></path><rect x="320.83" y="172.64" width="1.75" height="3.69" style="fill:#fafafa"></rect><rect x="331.26" y="181.81" width="1.75" height="3.69" style="fill:#ebebeb"></rect><path d="M337.52,179.49s-2.31.07-5.17.07-5.17,0-5.17-.07,2.31-.07,5.17-.07S337.52,179.45,337.52,179.49Z" style="fill:#ebebeb"></path><path d="M327.09,179.57s-2.32.07-5.18.07-5.17,0-5.17-.07,2.32-.07,5.17-.07S327.09,179.53,327.09,179.57Z" style="fill:#e0e0e0"></path><rect x="320.82" y="181.87" width="1.75" height="3.69" style="fill:#fafafa"></rect><rect x="331.26" y="191.04" width="1.75" height="3.69" style="fill:#ebebeb"></rect><path d="M337.52,188.72s-2.32.07-5.17.07-5.18,0-5.18-.07,2.32-.07,5.18-.07S337.52,188.68,337.52,188.72Z" style="fill:#ebebeb"></path><path d="M327.08,188.8s-2.31.07-5.17.07-5.17,0-5.17-.07,2.31-.07,5.17-.07S327.08,188.76,327.08,188.8Z" style="fill:#e0e0e0"></path><rect x="320.82" y="191.1" width="1.75" height="3.69" style="fill:#fafafa"></rect><rect x="331.26" y="200.27" width="1.75" height="3.69" style="fill:#ebebeb"></rect><path d="M337.52,198s-2.32.07-5.17.07-5.18,0-5.18-.07,2.32-.07,5.18-.07S337.52,197.91,337.52,198Z" style="fill:#ebebeb"></path><path d="M327.08,198s-2.31.07-5.17.07-5.18,0-5.18-.07,2.32-.08,5.18-.08S327.08,198,327.08,198Z" style="fill:#e0e0e0"></path><rect x="320.82" y="200.33" width="1.75" height="3.69" style="fill:#fafafa"></rect><rect x="331.25" y="209.5" width="1.75" height="3.69" style="fill:#ebebeb"></rect><path d="M337.52,207.18s-2.32.07-5.18.07-5.17,0-5.17-.07,2.31-.07,5.17-.07S337.52,207.14,337.52,207.18Z" style="fill:#ebebeb"></path><path d="M327.08,207.25s-2.32.07-5.17.07-5.18,0-5.18-.07,2.32-.07,5.18-.07S327.08,207.21,327.08,207.25Z" style="fill:#e0e0e0"></path><rect x="320.82" y="209.56" width="1.75" height="3.69" style="fill:#fafafa"></rect><rect x="331.25" y="218.73" width="1.75" height="3.69" style="fill:#ebebeb"></rect><path d="M337.51,216.4s-2.31.07-5.17.07-5.17,0-5.17-.07,2.31-.07,5.17-.07S337.51,216.36,337.51,216.4Z" style="fill:#ebebeb"></path><path d="M327.08,216.48s-2.32.07-5.18.07-5.17,0-5.17-.07,2.31-.07,5.17-.07S327.08,216.44,327.08,216.48Z" style="fill:#e0e0e0"></path><rect x="320.81" y="218.78" width="1.75" height="3.69" style="fill:#fafafa"></rect><rect x="331.27" y="146.67" width="1.75" height="3.69" style="fill:#ebebeb"></rect><rect x="296.26" y="150.31" width="29.46" height="73.32" style="fill:#ebebeb"></rect><rect x="310.98" y="150.31" width="14.73" height="73.32" style="fill:#e0e0e0"></rect><rect x="299.62" y="141.14" width="10.4" height="9.17" style="fill:#f5f5f5"></rect><rect x="307.54" y="141.14" width="2.48" height="9.17" style="fill:#ebebeb"></rect><polyline points="293.8 150.31 293.8 149.78 326.58 149.78 326.58 150.31" style="fill:#e0e0e0"></polyline><rect x="302.07" y="154.31" width="2.49" height="5.26" style="fill:#fafafa"></rect><path d="M311,161.63c0,.05-3.29.1-7.36.1s-7.36,0-7.36-.1,3.29-.1,7.36-.1S311,161.57,311,161.63Z" style="fill:#e0e0e0"></path><rect x="316.93" y="154.31" width="2.49" height="5.26" style="fill:#ebebeb"></rect><path d="M325.84,161.63c0,.05-3.3.1-7.36.1s-7.37,0-7.37-.1,3.3-.1,7.37-.1S325.84,161.57,325.84,161.63Z" style="fill:#ebebeb"></path><rect x="316.93" y="164.75" width="2.49" height="5.26" style="fill:#ebebeb"></rect><path d="M325.84,172.07c0,.05-3.3.1-7.36.1s-7.37,0-7.37-.1,3.3-.1,7.37-.1S325.84,172,325.84,172.07Z" style="fill:#ebebeb"></path><rect x="316.93" y="175.5" width="2.49" height="5.26" style="fill:#ebebeb"></rect><path d="M325.84,182.82c0,.06-3.3.1-7.36.1s-7.37,0-7.37-.1,3.3-.1,7.37-.1S325.84,182.77,325.84,182.82Z" style="fill:#ebebeb"></path><rect x="316.93" y="186.25" width="2.49" height="5.26" style="fill:#ebebeb"></rect><path d="M325.84,193.57c0,.06-3.3.11-7.36.11s-7.37-.05-7.37-.11,3.3-.1,7.37-.1S325.84,193.52,325.84,193.57Z" style="fill:#ebebeb"></path><rect x="316.93" y="196.7" width="2.49" height="5.26" style="fill:#ebebeb"></rect><path d="M325.84,204c0,.06-3.3.1-7.36.1s-7.37,0-7.37-.1,3.3-.1,7.37-.1S325.84,204,325.84,204Z" style="fill:#ebebeb"></path><rect x="316.93" y="207.19" width="2.49" height="5.26" style="fill:#ebebeb"></rect><rect x="316.93" y="217.81" width="2.49" height="5.26" style="fill:#ebebeb"></rect><path d="M325.84,214.51c0,.06-3.3.1-7.36.1s-7.37,0-7.37-.1,3.3-.1,7.37-.1S325.84,214.45,325.84,214.51Z" style="fill:#ebebeb"></path><rect x="302.07" y="164.91" width="2.49" height="5.26" style="fill:#fafafa"></rect><path d="M311,172.23c0,.05-3.29.1-7.36.1s-7.36-.05-7.36-.1,3.29-.1,7.36-.1S311,172.17,311,172.23Z" style="fill:#e0e0e0"></path><rect x="302.07" y="175.5" width="2.49" height="5.26" style="fill:#fafafa"></rect><path d="M311,182.82c0,.06-3.29.11-7.36.11s-7.36-.05-7.36-.11,3.29-.1,7.36-.1S311,182.77,311,182.82Z" style="fill:#e0e0e0"></path><rect x="302.07" y="186.1" width="2.49" height="5.26" style="fill:#fafafa"></rect><path d="M311,193.42c0,.06-3.29.1-7.36.1s-7.36,0-7.36-.1,3.29-.1,7.36-.1S311,193.37,311,193.42Z" style="fill:#e0e0e0"></path><rect x="302.07" y="196.7" width="2.49" height="5.26" style="fill:#fafafa"></rect><path d="M311,204c0,.06-3.29.1-7.36.1s-7.36,0-7.36-.1,3.29-.1,7.36-.1S311,204,311,204Z" style="fill:#e0e0e0"></path><rect x="302.07" y="207.3" width="2.49" height="5.26" style="fill:#fafafa"></rect><path d="M311,214.62s-3.29.1-7.36.1-7.36-.05-7.36-.1,3.29-.1,7.36-.1S311,214.56,311,214.62Z" style="fill:#e0e0e0"></path><rect x="302.07" y="217.9" width="2.49" height="5.26" style="fill:#fafafa"></rect><rect x="415.44" y="150.31" width="29.46" height="73.32" style="fill:#ebebeb"></rect><rect x="430.17" y="150.31" width="14.73" height="73.32" style="fill:#e0e0e0"></rect><rect x="418.8" y="141.14" width="10.4" height="9.17" style="fill:#f5f5f5"></rect><rect x="426.72" y="141.14" width="2.48" height="9.17" style="fill:#ebebeb"></rect><polyline points="412.98 150.31 412.98 149.78 445.76 149.78 445.76 150.31" style="fill:#e0e0e0"></polyline><rect x="421.25" y="154.31" width="2.49" height="5.26" style="fill:#fafafa"></rect><path d="M430.17,161.63c0,.05-3.3.1-7.37.1s-7.36,0-7.36-.1,3.29-.1,7.36-.1S430.17,161.57,430.17,161.63Z" style="fill:#e0e0e0"></path><rect x="436.11" y="154.31" width="2.49" height="5.26" style="fill:#ebebeb"></rect><path d="M445,161.63c0,.05-3.29.1-7.36.1s-7.37,0-7.37-.1,3.3-.1,7.37-.1S445,161.57,445,161.63Z" style="fill:#ebebeb"></path><rect x="436.11" y="164.75" width="2.49" height="5.26" style="fill:#ebebeb"></rect><path d="M445,172.07c0,.05-3.29.1-7.36.1s-7.37,0-7.37-.1,3.3-.1,7.37-.1S445,172,445,172.07Z" style="fill:#ebebeb"></path><rect x="436.11" y="175.5" width="2.49" height="5.26" style="fill:#ebebeb"></rect><path d="M445,182.82c0,.06-3.29.1-7.36.1s-7.37,0-7.37-.1,3.3-.1,7.37-.1S445,182.77,445,182.82Z" style="fill:#ebebeb"></path><rect x="436.11" y="186.25" width="2.49" height="5.26" style="fill:#ebebeb"></rect><path d="M445,193.57c0,.06-3.29.11-7.36.11s-7.37-.05-7.37-.11,3.3-.1,7.37-.1S445,193.52,445,193.57Z" style="fill:#ebebeb"></path><rect x="436.11" y="196.7" width="2.49" height="5.26" style="fill:#ebebeb"></rect><path d="M445,204c0,.06-3.29.1-7.36.1s-7.37,0-7.37-.1,3.3-.1,7.37-.1S445,204,445,204Z" style="fill:#ebebeb"></path><rect x="436.11" y="207.19" width="2.49" height="5.26" style="fill:#ebebeb"></rect><rect x="436.11" y="217.81" width="2.49" height="5.26" style="fill:#ebebeb"></rect><path d="M445,214.51c0,.06-3.29.1-7.36.1s-7.37,0-7.37-.1,3.3-.1,7.37-.1S445,214.45,445,214.51Z" style="fill:#ebebeb"></path><rect x="421.25" y="164.91" width="2.49" height="5.26" style="fill:#fafafa"></rect><path d="M430.17,172.23c0,.05-3.3.1-7.37.1s-7.36-.05-7.36-.1,3.29-.1,7.36-.1S430.17,172.17,430.17,172.23Z" style="fill:#e0e0e0"></path><rect x="421.25" y="175.5" width="2.49" height="5.26" style="fill:#fafafa"></rect><path d="M430.17,182.82c0,.06-3.3.11-7.37.11s-7.36-.05-7.36-.11,3.29-.1,7.36-.1S430.17,182.77,430.17,182.82Z" style="fill:#e0e0e0"></path><rect x="421.25" y="186.1" width="2.49" height="5.26" style="fill:#fafafa"></rect><path d="M430.17,193.42c0,.06-3.3.1-7.37.1s-7.36,0-7.36-.1,3.29-.1,7.36-.1S430.17,193.37,430.17,193.42Z" style="fill:#e0e0e0"></path><rect x="421.25" y="196.7" width="2.49" height="5.26" style="fill:#fafafa"></rect><path d="M430.17,204c0,.06-3.3.1-7.37.1s-7.36,0-7.36-.1,3.29-.1,7.36-.1S430.17,204,430.17,204Z" style="fill:#e0e0e0"></path><rect x="421.25" y="207.3" width="2.49" height="5.26" style="fill:#fafafa"></rect><path d="M430.17,214.62s-3.3.1-7.37.1-7.36-.05-7.36-.1,3.29-.1,7.36-.1S430.17,214.56,430.17,214.62Z" style="fill:#e0e0e0"></path><rect x="421.25" y="217.9" width="2.49" height="5.26" style="fill:#fafafa"></rect><circle cx="395.53" cy="114.73" r="18.29" transform="translate(34.72 313.28) rotate(-45)" style="fill:#fafafa"></circle><path d="M440.3,223.63c0,.15-41.23.26-92.09.26s-92.09-.11-92.09-.26,41.22-.26,92.09-.26S440.3,223.49,440.3,223.63Z" style="fill:#fff"></path><path d="M254,99.19c.15,0,.26,26.42.26,59s-.11,59-.26,59-.26-26.42-.26-59S253.81,99.19,254,99.19Z" style="fill:#fff"></path><path d="M342.35,132.13c.1.1-15.68,16-35.23,35.59s-35.5,35.34-35.6,35.23,15.67-16,35.23-35.59S342.24,132,342.35,132.13Z" style="fill:#fff"></path><path d="M334.81,126.8c.1.11-10.79,10.61-24.31,23.45s-24.59,23.18-24.68,23.08,10.78-10.61,24.32-23.46S334.71,126.7,334.81,126.8Z" style="fill:#fff"></path><path d="M429.09,145.31c.11.1-12.1,12.47-27.26,27.63s-27.54,27.37-27.64,27.27,12.11-12.47,27.27-27.64S429,145.2,429.09,145.31Z" style="fill:#fff"></path><path d="M420.86,138.17c.1.1-7.93,8.3-17.93,18.3s-18.21,18-18.31,17.94,7.93-8.3,17.94-18.31S420.76,138.07,420.86,138.17Z" style="fill:#fff"></path><path d="M450.56,88.48c0,.14-41.54.26-92.77.26S265,88.62,265,88.48s41.53-.26,92.77-.26S450.56,88.34,450.56,88.48Z" style="fill:#fff"></path><path d="M445.83,75.64c0,.14-40.78.26-91.08.26s-91.09-.12-91.09-.26,40.78-.26,91.09-.26S445.83,75.49,445.83,75.64Z" style="fill:#fff"></path><path d="M447.86,62c0,.15-41.62.26-92.94.26S262,62.13,262,62s41.61-.26,92.95-.26S447.86,61.84,447.86,62Z" style="fill:#fff"></path><path d="M447.86,48.58c0,.14-41.62.26-92.94.26S262,48.72,262,48.58s41.61-.26,92.95-.26S447.86,48.44,447.86,48.58Z" style="fill:#fff"></path><path d="M449.21,37.5c0,.14-41.62.26-92.94.26s-92.94-.12-92.94-.26,41.6-.26,92.94-.26S449.21,37.36,449.21,37.5Z" style="fill:#fff"></path></g><g id="freepik--Floor--inject-11"><path d="M477.37,472.92c0,.14-102.25.26-228.36.26s-228.38-.12-228.38-.26,102.23-.26,228.38-.26S477.37,472.77,477.37,472.92Z" style="fill:#263238"></path></g><g id="freepik--Plant--inject-11"><path d="M472.56,320.4c-8,4.13-14.08,11.24-18.48,19.07s-7.23,16.42-10,24.95l-2.45,44c9.28-15.79,16.72-34.34,18.73-52.54l-6.17-.55c4.14-.63,7.61-3.63,9.82-7.18s3.35-7.66,4.46-11.7l-7.53,1.12A27.86,27.86,0,0,0,472.56,320.4Z" style="fill:#455a64"></path><g style="opacity:0.30000000000000004"><path d="M472.56,320.4c-8,4.13-14.08,11.24-18.48,19.07s-7.23,16.42-10,24.95l-2.45,44c9.28-15.79,16.72-34.34,18.73-52.54l-6.17-.55c4.14-.63,7.61-3.63,9.82-7.18s3.35-7.66,4.46-11.7l-7.53,1.12A27.86,27.86,0,0,0,472.56,320.4Z"></path></g><path d="M440.21,418.71s-20.13-24.1-19.9-47.11h8.13s-8.83-5.81-8.13-9.06.93-15.57.93-15.57l7.44,1.86s-5.58-2.79-6.28-7.21S424,316.76,424,316.76s9.06,9.52,11.85,19.29,10.11,21.14,8,50.89S440.21,418.71,440.21,418.71Z" style="fill:#455a64"></path><path d="M450.42,421s21.82-14.53,26.67-33.08l-6.54-1.78s8.37-2.74,8.52-5.51,2.66-12.72,2.66-12.72l-6.39-.13s5.1-1,6.62-4.42S486.1,343,486.1,343s-9.38,5.68-13.75,12.91-12.76,14.79-17.54,39.18S450.42,421,450.42,421Z" style="fill:#455a64"></path><path d="M429.53,337.77a.76.76,0,0,1,.08.25c.05.19.11.44.18.74.16.69.38,1.65.65,2.86.57,2.48,1.31,6.09,2.17,10.56,1.72,8.93,3.75,21.35,5.35,35.15s2.44,26.36,2.81,35.46c.19,4.55.29,8.23.3,10.77,0,1.24,0,2.22,0,2.93v.76a.71.71,0,0,1,0,.26.79.79,0,0,1,0-.25c0-.21,0-.46,0-.77,0-.71-.07-1.68-.12-2.92-.08-2.55-.23-6.22-.47-10.76-.46-9.09-1.37-21.63-3-35.42s-3.57-26.2-5.2-35.15c-.8-4.47-1.49-8.09-2-10.58-.24-1.22-.43-2.18-.56-2.88-.05-.3-.1-.55-.13-.75A.86.86,0,0,1,429.53,337.77Z" style="fill:#263238"></path><path d="M437.42,433.47S419,412.56,413.27,399.93l4.32-1.85c-3.13.52-6.34-.83-8.76-2.87a33,33,0,0,1-6-7.38l5.69-1a21.21,21.21,0,0,1-12.44-9.63c6.72,1.1,12.79,4.79,17.8,9.4a88.06,88.06,0,0,1,10.78,12.49,42.09,42.09,0,0,1,4.19,6.89C432,412.42,437.43,425.79,437.42,433.47Z" style="fill:#455a64"></path><path d="M477.38,355.17a2,2,0,0,1-.08.21L477,356c-.27.58-.64,1.35-1.11,2.33-1,2-2.37,4.93-4.06,8.56-3.38,7.25-7.84,17.36-12.24,28.74s-7.91,21.88-10.28,29.51c-1.19,3.82-2.13,6.92-2.76,9.07l-.74,2.46-.21.64a1.14,1.14,0,0,1-.08.21s0-.07,0-.22.1-.39.16-.65c.16-.62.37-1.45.65-2.5.57-2.16,1.45-5.28,2.6-9.11,2.28-7.68,5.74-18.19,10.14-29.59s8.93-21.5,12.4-28.72c1.73-3.61,3.17-6.51,4.21-8.49q.75-1.44,1.2-2.28l.32-.59C477.33,355.23,477.37,355.16,477.38,355.17Z" style="fill:#263238"></path><path d="M439,442.43a9.84,9.84,0,0,1-.29-1.49c-.15-1-.4-2.35-.74-4.06a83.47,83.47,0,0,0-9.57-25.34c-.87-1.51-1.6-2.71-2.13-3.53a8.22,8.22,0,0,1-.76-1.32,8.55,8.55,0,0,1,.93,1.2c.58.79,1.36,2,2.28,3.46a73.87,73.87,0,0,1,9.61,25.46c.3,1.73.49,3.13.58,4.11A8.13,8.13,0,0,1,439,442.43Z" style="fill:#263238"></path><rect x="422.97" y="437.51" width="40.33" height="8.23" style="fill:#FF725E"></rect><polygon points="426.81 445.74 431.18 473.41 455.55 473.41 459.61 445.74 426.81 445.74" style="fill:#FF725E"></polygon><path d="M460.83,445.74c0,.15-7.63.26-17,.26s-17-.11-17-.26,7.62-.26,17-.26S460.83,445.6,460.83,445.74Z" style="fill:#263238"></path></g><g id="freepik--serum-bag--inject-11"><path d="M176.17,142a69.27,69.27,0,0,1-2.87,45.71c-1.94,4.53-5.2,9-5.44,14.07-.22,4.72,3,8.06,6.86,10.22,3.67,2.05,8.42,3.33,10.85,7,2.69,4.1-.62,8.14-3.11,11.36a26.16,26.16,0,0,0-3.64,5.87,25.81,25.81,0,0,0-1.77,7c-1.44,11.92,4.33,24,.74,35.7a1.25,1.25,0,0,0,2.41.67c3.25-10.66-.94-21.46-.89-32.23,0-5.06,1.07-9.93,4.08-14.09,2.44-3.37,6-6.81,5.7-11.33s-3.93-7.43-7.58-9.36-8.46-3.3-10.44-7.22c-2.42-4.81,1.61-10.34,3.57-14.57a70.42,70.42,0,0,0,5-14.82,71.93,71.93,0,0,0-1-34.65,1.25,1.25,0,0,0-2.41.67Z" style="fill:#FF725E"></path><path d="M176.17,142a1.15,1.15,0,0,1,.72-1.48,1.33,1.33,0,0,1,1.34.16c.45.36.48,1,.67,1.6s.36,1.29.52,2q.56,2.21,1,5.13a71.92,71.92,0,0,1-2.36,33,66.93,66.93,0,0,1-4.16,10.24,51,51,0,0,0-2.53,5.26,14.82,14.82,0,0,0-.77,2.87,8,8,0,0,0,.09,3,8.27,8.27,0,0,0,3.56,4.83,37.73,37.73,0,0,0,5.72,3,23.12,23.12,0,0,1,5.71,3.57,10.22,10.22,0,0,1,3.52,5.94,10.07,10.07,0,0,1-1.66,6.87c-1.25,2.07-2.88,3.86-4.25,5.84-2.77,4-3.84,9-3.76,14s1,10.11,1.6,15.3.93,10.62-.54,15.87a5.29,5.29,0,0,1-.32,1,1.43,1.43,0,0,1-.95.71,1.56,1.56,0,0,1-1.86-1.13,2.65,2.65,0,0,1,.14-1.1l.25-1a14.2,14.2,0,0,0,.39-1.92,35.28,35.28,0,0,0,.37-7.81c-.31-5.19-1.32-10.26-1.81-15.31s-.4-10.15,1.19-14.83a22.54,22.54,0,0,1,3.47-6.38,37.78,37.78,0,0,0,4-5.76,7.38,7.38,0,0,0,.84-3.22,5.47,5.47,0,0,0-.93-3.09,12.89,12.89,0,0,0-5-4.15c-1.93-1-4-1.83-5.83-2.89a15.65,15.65,0,0,1-4.87-4.07,9.55,9.55,0,0,1-2-5.77,15.83,15.83,0,0,1,1.23-5.79c1.42-3.6,3.44-6.7,4.7-10A69.69,69.69,0,0,0,178.33,154a70,70,0,0,0-1.43-8.92c-.22-1-.42-1.78-.55-2.29s-.18-.78-.18-.78.35,1,.83,3a66.61,66.61,0,0,1,1.53,8.93,68.34,68.34,0,0,1,0,14.32,69.14,69.14,0,0,1-4.57,18.39c-1.26,3.31-3.28,6.44-4.67,10a15.57,15.57,0,0,0-1.18,5.63,9.09,9.09,0,0,0,1.94,5.52,15.37,15.37,0,0,0,4.75,4c1.84,1,3.87,1.83,5.83,2.86a13.28,13.28,0,0,1,5.19,4.3,5.93,5.93,0,0,1,1,3.35,8.15,8.15,0,0,1-.88,3.43,38.87,38.87,0,0,1-4,5.84,22,22,0,0,0-3.39,6.25c-1.55,4.58-1.64,9.63-1.16,14.62s1.52,10.09,1.83,15.33a35.69,35.69,0,0,1-.37,7.92,15,15,0,0,1-.41,2l-.25,1a2.24,2.24,0,0,0-.13.86,1,1,0,0,0,1.24.72.9.9,0,0,0,.61-.45,6.52,6.52,0,0,0,.27-.9c1.44-5.14,1.15-10.52.52-15.66s-1.57-10.27-1.59-15.36,1-10.22,3.86-14.29c1.4-2,3-3.8,4.24-5.82a8.79,8.79,0,0,0-1.75-12.2,22.6,22.6,0,0,0-5.6-3.51A37.9,37.9,0,0,1,174,209a8.69,8.69,0,0,1-3.72-5.1,8.46,8.46,0,0,1-.09-3.13,15.48,15.48,0,0,1,.8-2.95,54.16,54.16,0,0,1,2.56-5.3,66.09,66.09,0,0,0,4.17-10.17,72.61,72.61,0,0,0,2.51-32.83q-.47-2.91-1-5.12c-.16-.74-.33-1.42-.5-2s-.21-1.23-.61-1.55a1.24,1.24,0,0,0-1.24-.17,1.14,1.14,0,0,0-.69.63A1.57,1.57,0,0,0,176.17,142Z" style="fill:#263238"></path><rect x="84.48" y="116.42" width="34.25" height="51.55" rx="2.98" style="fill:#f5f5f5"></rect><path d="M115.75,168a3.51,3.51,0,0,0,1.57-.52,2.93,2.93,0,0,0,1.19-1.57,3.68,3.68,0,0,0,.13-1.27c0-.46,0-1,0-1.49,0-4.24,0-10.32-.09-17.84,0-3.76,0-7.89,0-12.31,0-2.22,0-4.51,0-6.87,0-1.18,0-2.37,0-3.59v-1.83a15.09,15.09,0,0,0,0-1.8,2.76,2.76,0,0,0-2.39-2.2c-1.22,0-2.55,0-3.84,0H87.46A2.73,2.73,0,0,0,84.77,119c-.06,1.35,0,2.81,0,4.19q0,4.2,0,8.27c0,5.41,0,10.64,0,15.62s0,9.71,0,14.14c0,1.11,0,2.2,0,3.26a2.94,2.94,0,0,0,1,2.64,2.78,2.78,0,0,0,1.29.57,11.7,11.7,0,0,0,1.46,0h2.89l17.84.08,4.85,0,1.26,0,.43,0-.43,0-1.26,0-4.85,0-17.84.08H88.48a13.14,13.14,0,0,1-1.52,0,3.32,3.32,0,0,1-1.48-.64,3.23,3.23,0,0,1-1-1.32,4,4,0,0,1-.23-1.64c0-1.06,0-2.15,0-3.26,0-4.43,0-9.16,0-14.14s0-10.21,0-15.62v-8.27c0-1.41,0-2.78,0-4.26a3.25,3.25,0,0,1,3.21-2.81h24.75c1.31,0,2.57,0,3.89,0a3.23,3.23,0,0,1,2.81,2.59,15.28,15.28,0,0,1,.06,1.89v5.42c0,2.36,0,4.65,0,6.87,0,4.42,0,8.55,0,12.31,0,7.52-.06,13.6-.08,17.84,0,.53,0,1,0,1.49a3.77,3.77,0,0,1-.16,1.32,3,3,0,0,1-1.28,1.61,2.81,2.81,0,0,1-1.2.42A2,2,0,0,1,115.75,168Z" style="fill:#263238"></path><path d="M176.18,110.17l-.42,0a8.84,8.84,0,0,1-5.49-3.2,4,4,0,0,0-3-1.36H110.54a5,5,0,0,0-3.41,1.37c-1.52,1.42-3.85,3.11-6.37,3.11-3.19,0-5.48-2.84-6.34-5.66l2.71-.82c.44,1.47,1.78,3.66,3.63,3.66,1.25,0,2.82-.84,4.44-2.35a7.83,7.83,0,0,1,5.34-2.13h56.74a6.84,6.84,0,0,1,5.1,2.3,6.3,6.3,0,0,0,3.68,2.27c1.51.16,3.33-3.4,4.06-6l2.72.75C182.61,102.92,180.48,110.17,176.18,110.17Z" style="fill:#e0e0e0"></path><path d="M176.18,110.17a4.41,4.41,0,0,0,2.59-1c1.47-1.17,3-3.64,4-7.09l.08.15-2.73-.74.17-.09a17,17,0,0,1-1.19,3.1,11.1,11.1,0,0,1-.91,1.54,4.15,4.15,0,0,1-1.36,1.34,1.45,1.45,0,0,1-1,.13,4.19,4.19,0,0,1-1-.3,6.54,6.54,0,0,1-1.7-1.13c-.54-.45-1-1-1.48-1.46a6.8,6.8,0,0,0-1.77-1.09,6.4,6.4,0,0,0-2.09-.5c-.72,0-1.51,0-2.27,0h-4.78l-10.28,0-23.13,0H111.47a9.26,9.26,0,0,0-3.16.34,7.65,7.65,0,0,0-2.76,1.56,11.91,11.91,0,0,1-2.72,2,4.7,4.7,0,0,1-1.92.56,2.94,2.94,0,0,1-1.93-.64,6.5,6.5,0,0,1-2.1-3.2l.32.18-2.7.82.17-.33a9.19,9.19,0,0,0,2.23,3.79,5.53,5.53,0,0,0,3.84,1.7,7.66,7.66,0,0,0,4-1.32,14.21,14.21,0,0,0,1.72-1.28,7.21,7.21,0,0,1,1.77-1.33,5.22,5.22,0,0,1,2.16-.54h14.35l27.65.06,10.54,0,4.31,0a4.18,4.18,0,0,1,3.23,1.55,9.63,9.63,0,0,0,4,2.8,7.64,7.64,0,0,0,1.25.29,3.85,3.85,0,0,1,.44,0,4.6,4.6,0,0,1-1.72-.25,9.52,9.52,0,0,1-4.12-2.76,4,4,0,0,0-3.09-1.45l-4.31,0-10.54,0-27.65.06H110.41a4.62,4.62,0,0,0-2,.5,7,7,0,0,0-1.67,1.26,14.61,14.61,0,0,1-1.77,1.33,8.23,8.23,0,0,1-4.29,1.4,6,6,0,0,1-4.19-1.84,9.63,9.63,0,0,1-2.36-4l-.08-.25.25-.08,2.7-.82.25-.07.08.24a6.06,6.06,0,0,0,1.91,2.94,2.41,2.41,0,0,0,1.59.53,4.37,4.37,0,0,0,1.72-.51,11.23,11.23,0,0,0,2.61-1.93,8.17,8.17,0,0,1,2.94-1.66,9.7,9.7,0,0,1,3.32-.37H127.3l23.13,0,10.28,0h4.78c.78,0,1.52,0,2.3,0a6.77,6.77,0,0,1,2.2.54,7.16,7.16,0,0,1,1.87,1.16c.56.48,1,1,1.47,1.47a6.35,6.35,0,0,0,1.61,1.09,2,2,0,0,0,1.71.18,3.93,3.93,0,0,0,1.25-1.22,12.4,12.4,0,0,0,.9-1.5,17.51,17.51,0,0,0,1.19-3l0-.13.12,0,2.72.76.12,0,0,.12c-1,3.47-2.58,6-4.11,7.12a5.33,5.33,0,0,1-1.08.65,7,7,0,0,1-.86.26C176.42,110.17,176.18,110.17,176.18,110.17Z" style="fill:#263238"></path><rect x="132.69" y="78.79" width="7.37" height="381.99" style="fill:#e0e0e0"></rect><path d="M132.69,460.78c0-1.42-.06-42.61-.16-111.51,0-69.06-.06-164.59-.1-270.48v-.26h7.89v.26c-.11,190-.19,348.13-.21,382v.05h-.05l-7.37-.05,7.37,0-.05,0c0-33.86-.11-192-.21-382l.26.26h-7.37l.26-.26c0,105.81-.08,201.28-.11,270.29S132.69,459.36,132.69,460.78Z" style="fill:#263238"></path><path d="M105.63,463h57.09a4.5,4.5,0,0,0-4.49-4.49H110.12a4.5,4.5,0,0,0-4.49,4.49Z" style="fill:#e0e0e0"></path><path d="M152.86,467.17a6.39,6.39,0,1,0,6.38-6.38A6.38,6.38,0,0,0,152.86,467.17Z" style="fill:#263238"></path><path d="M99.75,467.17a6.39,6.39,0,1,0,6.38-6.38A6.38,6.38,0,0,0,99.75,467.17Z" style="fill:#263238"></path><path d="M127.8,467.21a6.38,6.38,0,1,0,6.38-6.38A6.37,6.37,0,0,0,127.8,467.21Z" style="fill:#263238"></path><path d="M138.41,104.81c-.07.12-.53-.17-.46-.77s.64-.73.67-.6-.14.36-.18.67S138.51,104.71,138.41,104.81Z" style="fill:#263238"></path><path d="M132.69,124.1c-.14,0-.25-6.44-.25-14.39s.11-14.38.25-14.38.24,6.44.24,14.38S132.82,124.1,132.69,124.1Z" style="fill:#263238"></path><rect x="88.09" y="138.47" width="27.03" height="25.54" rx="2.13" style="fill:#e0e0e0"></rect><rect x="92.96" y="145.92" width="17.14" height="5.32" style="fill:#fff"></rect><path d="M103.43,119.43a1.91,1.91,0,1,1-1.91-1.91A1.91,1.91,0,0,1,103.43,119.43Z" style="fill:#263238"></path><path d="M102.17,120a38.2,38.2,0,0,0-.35-13.61c-.16-.79-1.37-.45-1.21.33a36.38,36.38,0,0,1,.35,12.95c-.12.79,1.08,1.13,1.21.33Z" style="fill:#263238"></path><rect x="159.57" y="116.42" width="34.25" height="51.55" rx="2.98" style="fill:#f5f5f5"></rect><path d="M190.84,168a3.51,3.51,0,0,0,1.57-.52,2.93,2.93,0,0,0,1.19-1.57,3.68,3.68,0,0,0,.13-1.27c0-.46,0-1,0-1.49,0-4.24-.05-10.32-.09-17.84,0-3.76,0-7.89,0-12.31,0-2.22,0-4.51,0-6.87,0-1.18,0-2.37,0-3.59v-1.83a15.09,15.09,0,0,0-.05-1.8,2.76,2.76,0,0,0-2.39-2.2c-1.22,0-2.55,0-3.84,0H162.55a2.73,2.73,0,0,0-2.69,2.36c-.06,1.35,0,2.81,0,4.19v8.27c0,5.41,0,10.64,0,15.62s0,9.71,0,14.14c0,1.11,0,2.2,0,3.26a2.94,2.94,0,0,0,1,2.64,2.78,2.78,0,0,0,1.29.57,11.7,11.7,0,0,0,1.46,0h2.89l17.84.08,4.85,0,1.26,0,.43,0-.43,0-1.26,0-4.85,0-17.84.08h-2.89a13.14,13.14,0,0,1-1.52,0,3.32,3.32,0,0,1-1.48-.64,3.23,3.23,0,0,1-1-1.32,4,4,0,0,1-.23-1.64c0-1.06,0-2.15,0-3.26,0-4.43,0-9.16,0-14.14s0-10.21,0-15.62v-8.27c0-1.41,0-2.78,0-4.26a3.25,3.25,0,0,1,3.21-2.81H187.3c1.31,0,2.57,0,3.89,0a3.23,3.23,0,0,1,2.81,2.59,15.28,15.28,0,0,1,.06,1.89v5.42c0,2.36,0,4.65,0,6.87,0,4.42,0,8.55,0,12.31,0,7.52-.06,13.6-.08,17.84,0,.53,0,1,0,1.49a3.77,3.77,0,0,1-.16,1.32,3,3,0,0,1-1.28,1.61,2.77,2.77,0,0,1-1.2.42A2,2,0,0,1,190.84,168Z" style="fill:#263238"></path><rect x="163.6" y="138.47" width="27.03" height="25.54" rx="2.13" style="fill:#FF725E"></rect><path d="M174.35,164s4,.44,4.25,3.59h2.15s.13-3.3,4.13-3.59l-1.06-1.8h-6.41Z" style="fill:#FF725E"></path><rect x="169.14" y="145.92" width="17.14" height="5.32" style="fill:#fff"></rect><path d="M178.52,119.43a1.91,1.91,0,1,1-1.91-1.91A1.91,1.91,0,0,1,178.52,119.43Z" style="fill:#263238"></path><path d="M177.26,120a38.2,38.2,0,0,0-.35-13.61c-.16-.79-1.37-.45-1.21.33a36.38,36.38,0,0,1,.35,12.95c-.12.79,1.08,1.13,1.21.33Z" style="fill:#263238"></path><path d="M187.52,134.88c.22.2-3.82,4.29-8.93,9.15-2.56,2.43-4.9,4.6-6.62,6.16-.86.77-1.56,1.39-2.05,1.81a4.43,4.43,0,0,1-.8.62s.21-.3.66-.76l1.94-1.94c1.65-1.62,3.95-3.84,6.51-6.27Z" style="fill:#263238"></path><path d="M187,131.17c.09.12-3.63,3.22-8.31,6.94s-8.56,6.65-8.65,6.53,3.64-3.22,8.32-6.94S186.91,131.06,187,131.17Z" style="fill:#263238"></path></g><g id="freepik--Character--inject-11"><path d="M178.48,350.47,34.86,278.07a5.2,5.2,0,0,1-2.18-7l6.53-13.24a5.21,5.21,0,0,1,7-2.5L180,323.57c2.5,1.27,5.93,7.91,4.6,10.53l1,4Z" style="fill:#455a64"></path><circle cx="150.98" cy="460.27" r="12.65" transform="translate(-271.28 222.91) rotate(-42.5)" style="fill:#263238"></circle><path d="M158.38,454.71l.22-23.26H136l-.21,20.09a5,5,0,0,0,5,5h1.83a8.75,8.75,0,0,0-.48,3.81,9,9,0,0,0,8.95,8,8.84,8.84,0,0,0,7.25-13.67Z" style="fill:#e0e0e0"></path><path d="M154.67,459.54a3.69,3.69,0,1,1-3.69-3.68A3.69,3.69,0,0,1,154.67,459.54Z" style="fill:#455a64"></path><rect x="85.09" y="418.65" width="328.3" height="10.74" style="fill:#e0e0e0"></rect><path d="M413.39,429.39s0-.86,0-2.63,0-4.44,0-8.11l.06.06-328.29.2h0l.26-.26v10.74l-.26-.26,232.47.11,70.12.08,19.05,0h5l1.7,0-1.67,0-4.92,0-19,0-70.06.08-232.66.1h-.26V418.39h.27l328.29.2h.06v.06c0,3.68,0,6.37,0,8.15S413.39,429.39,413.39,429.39Z" style="fill:#263238"></path><rect x="132.74" y="380.63" width="11.19" height="35.98" style="fill:#e0e0e0"></rect><path d="M143.93,416.61s0-.26,0-.73,0-1.19,0-2c0-1.82,0-4.37-.07-7.56,0-6.43-.07-15.37-.11-25.65l.25.25H132.74c.52-.52.14-.14.26-.25h0V386c0,1.76,0,3.49,0,5.19,0,3.39,0,6.63,0,9.7,0,6.1-.05,11.46-.06,15.73l-.17-.17,8.19.09,2.21,0,.79,0a6.39,6.39,0,0,1-.73,0l-2.17,0-8.29.09h-.17v-.17c0-4.27,0-9.63-.07-15.73,0-3.07,0-6.31,0-9.7,0-1.7,0-3.43,0-5.19v-5.34h0c.12-.12-.26.25.26-.27h11.44v.25c-.05,10.35-.09,19.35-.12,25.83,0,3.16-.05,5.7-.07,7.49,0,.84,0,1.5,0,2A5.37,5.37,0,0,1,143.93,416.61Z" style="fill:#263238"></path><rect x="124.39" y="414.27" width="45.82" height="19.5" style="fill:#e0e0e0"></rect><path d="M170.21,433.77a2.63,2.63,0,0,1,0-.36c0-.26,0-.6,0-1,0-.92,0-2.23,0-3.9,0-3.39-.06-8.23-.1-14.21l.18.19-45.82.07.26-.26h0v5.06c0,1.67,0,3.33,0,5v9.46l-.25-.25,32.81.12,9.54.07,2.56,0,.67,0h.24s-.06,0-.21,0h-.64l-2.51,0-9.49.07-33,.12h-.25v-.25c0-3,0-6.2,0-9.46v-10h0l.26-.26,45.82.08h.19v.18c-.05,6-.08,10.91-.1,14.33,0,1.65,0,2.94-.05,3.86,0,.41,0,.74,0,1A1.7,1.7,0,0,1,170.21,433.77Z" style="fill:#263238"></path><circle cx="394.33" cy="460.48" r="12.65" transform="translate(-94.79 102.3) rotate(-13.21)" style="fill:#263238"></circle><path d="M386.93,455.65v-24.2h22.6v21a5,5,0,0,1-5,5h-1.83a8.65,8.65,0,0,1,.47,3.82,9,9,0,0,1-8.94,8,8.84,8.84,0,0,1-7.26-13.67Z" style="fill:#e0e0e0"></path><path d="M390.65,460.48a3.69,3.69,0,1,0,3.68-3.68A3.69,3.69,0,0,0,390.65,460.48Z" style="fill:#455a64"></path><rect x="367.57" y="413.71" width="45.82" height="19.5" style="fill:#e0e0e0"></rect><path d="M367.57,433.21s0-.1,0-.32,0-.58,0-1c0-.92,0-2.21,0-3.86,0-3.42-.06-8.31-.1-14.33v-.18h.19l45.82-.08c-.23-.23.32.32.27.26h0v10c0,3.26,0,6.43,0,9.46v.25h-.24l-33-.12-9.49-.07-2.51,0h-.64a.85.85,0,0,1-.21,0h.24l.67,0,2.56,0,9.55-.07L413.4,433l-.25.25c0-3,0-6.2,0-9.46v-10h0c-.05-.06.5.49.26.26l-45.82-.07.19-.19c-.05,6-.08,10.82-.1,14.21,0,1.67,0,3-.05,3.9,0,.43,0,.77,0,1A2.63,2.63,0,0,1,367.57,433.21Z" style="fill:#263238"></path><polygon points="171.08 345.08 165.39 360.54 444.62 360.54 444.62 345.08 171.08 345.08" style="fill:#e0e0e0"></polygon><rect x="174.12" y="320.47" width="268.83" height="24.61" rx="4.68" style="fill:#455a64"></rect><path d="M446,376.76h0a7.67,7.67,0,0,1-7.67-7.72l.75-105.81a7.66,7.66,0,0,1,7.66-7.61h0a7.67,7.67,0,0,1,7.67,7.72l-.74,105.81A7.67,7.67,0,0,1,446,376.76Z" style="fill:#e0e0e0"></path><path d="M446,376.76a8.45,8.45,0,0,0,2.57-.5,7.84,7.84,0,0,0,2.67-1.68,7.56,7.56,0,0,0,2.1-3.69,10.1,10.1,0,0,0,.22-2.56c0-.92,0-1.87,0-2.87,0-2,0-4.18,0-6.51,0-4.67.05-10,.07-15.86.07-11.76.15-25.75.24-41.28.05-7.77.1-15.93.15-24.38q0-6.35.09-12.9a10.91,10.91,0,0,0-.26-3.19,7.23,7.23,0,0,0-1.47-2.81,7.4,7.4,0,0,0-11.34,0,7.28,7.28,0,0,0-1.46,2.81,11.3,11.3,0,0,0-.28,3.2c0,4.36-.07,8.67-.1,12.9-.06,8.45-.13,16.61-.19,24.38-.12,15.54-.24,29.53-.34,41.29-.06,5.87-.11,11.19-.15,15.86,0,2.33-.05,4.5-.07,6.5,0,1,0,2,0,2.87a9.2,9.2,0,0,0,.21,2.56,7.42,7.42,0,0,0,2.11,3.69,7.71,7.71,0,0,0,2.66,1.68,8.87,8.87,0,0,0,2.57.5h-.67a7.56,7.56,0,0,1-1.93-.4,7.79,7.79,0,0,1-2.74-1.67,7.48,7.48,0,0,1-1.3-1.59,7.18,7.18,0,0,1-.9-2.17,9.2,9.2,0,0,1-.23-2.6c0-.91,0-1.87,0-2.87q0-3,0-6.51c0-4.67,0-10,.07-15.86.07-11.75.15-25.75.24-41.28,0-7.77.1-15.93.15-24.39q0-6.35.09-12.9a11.77,11.77,0,0,1,.29-3.32,7.85,7.85,0,0,1,1.58-3,7.91,7.91,0,0,1,12.13,0,7.73,7.73,0,0,1,1.57,3,11.51,11.51,0,0,1,.28,3.34q0,6.54-.1,12.89c-.06,8.45-.12,16.61-.18,24.38-.13,15.53-.25,29.53-.35,41.28,0,5.88-.1,11.19-.15,15.86q0,3.51-.06,6.51c0,1,0,2,0,2.87a10,10,0,0,1-.24,2.6,7.68,7.68,0,0,1-2.2,3.77,7.9,7.9,0,0,1-2.74,1.66,7.56,7.56,0,0,1-1.93.4Z" style="fill:#263238"></path><path d="M438.62,280.07c.14,0,.26,21.52.26,48.05s-.12,48-.26,48-.26-21.5-.26-48S438.48,280.07,438.62,280.07Z" style="fill:#263238"></path><rect x="34.85" y="360.53" width="393.53" height="22.31" style="fill:#e0e0e0"></rect><rect x="49.4" y="360.68" width="393.53" height="22.31" style="fill:#e0e0e0"></rect><g style="opacity:0.30000000000000004"><rect x="34.85" y="360.53" width="393.53" height="22.31"></rect></g><path d="M450.07,388.08l-21.2-20.39a14.22,14.22,0,0,0-9.86-4H362.14A18.57,18.57,0,0,0,350,368.2c-5.26,4.52-13.73,11.88-22.34,19.38-10.38,9.05-4,26.13,9.79,26.13H439.74A14.9,14.9,0,0,0,450.07,388.08Zm-82.5,9.75a5.52,5.52,0,0,1-5.52,5.52H340.71a4.52,4.52,0,0,1-3.07-7.84L360,374.77a4.53,4.53,0,0,1,7.6,3.32Zm36.05.18a4.79,4.79,0,0,1-4.78,4.79H380.56a4.8,4.8,0,0,1-4.79-4.79V378.34a4.79,4.79,0,0,1,4.79-4.78h18.28a4.78,4.78,0,0,1,4.78,4.78Zm34.74,5.34H417a5.52,5.52,0,0,1-5.52-5.52V378.09a4.53,4.53,0,0,1,7.61-3.32l22.33,20.74A4.53,4.53,0,0,1,438.36,403.35Z" style="fill:#e0e0e0"></path><path d="M450.07,388.08l-21.2-20.39a14.22,14.22,0,0,0-9.86-4H362.14A18.57,18.57,0,0,0,350,368.2c-5.26,4.52-13.73,11.88-22.34,19.38-10.38,9.05-4,26.13,9.79,26.13H439.74A14.9,14.9,0,0,0,450.07,388.08Zm-82.5,9.75a5.52,5.52,0,0,1-5.52,5.52H340.71a4.52,4.52,0,0,1-3.07-7.84L360,374.77a4.53,4.53,0,0,1,7.6,3.32Zm36.05.18a4.79,4.79,0,0,1-4.78,4.79H380.56a4.8,4.8,0,0,1-4.79-4.79V378.34a4.79,4.79,0,0,1,4.79-4.78h18.28a4.78,4.78,0,0,1,4.78,4.78Zm34.74,5.34H417a5.52,5.52,0,0,1-5.52-5.52V378.09a4.53,4.53,0,0,1,7.61-3.32l22.33,20.74A4.53,4.53,0,0,1,438.36,403.35Z" style="fill:none"></path><path d="M438.36,403.35s.36,0,1-.17a4.39,4.39,0,0,0,2.4-1.54,4.48,4.48,0,0,0,.73-4.29l-.29-.62-.39-.57-.49-.53-.56-.51-2.41-2.22L426.49,382l-7-6.48a6,6,0,0,0-1.95-1.38,4.28,4.28,0,0,0-5.67,3,14.17,14.17,0,0,0-.12,2.55v7.62c0,3.3,0,6.49,0,9.53a10.41,10.41,0,0,0,.13,2.19,5.35,5.35,0,0,0,4.15,4,9.6,9.6,0,0,0,1.94.1h1.92l3.61,0,10.88.08,3,.05.77,0a.76.76,0,0,1,.26,0l-.26,0-.77,0-3,.05-10.88.09H418a10,10,0,0,1-2-.1,5.7,5.7,0,0,1-4.52-4.35,9.85,9.85,0,0,1-.16-2.29c0-3,0-6.23,0-9.53,0-1.65,0-3.34,0-5v-2.58a14.19,14.19,0,0,1,.13-2.66,4.79,4.79,0,0,1,6.37-3.39,6.3,6.3,0,0,1,2.1,1.49l7,6.5,11.79,11c.83.79,1.63,1.53,2.39,2.24a12.33,12.33,0,0,1,1.07,1.1l.41.62.29.66a4.7,4.7,0,0,1-.84,4.52,4.33,4.33,0,0,1-2.54,1.51A3.22,3.22,0,0,1,438.36,403.35Z" style="fill:#263238"></path><path d="M403.62,398a1.39,1.39,0,0,1,0-.27c0-.22,0-.48,0-.81,0-.74,0-1.78-.05-3.08,0-2.73,0-6.6-.08-11.36,0-1.2,0-2.45,0-3.76a4.69,4.69,0,0,0-1.31-3.57,4.79,4.79,0,0,0-3.82-1.38l-4.63,0H381.11a5,5,0,0,0-2.47.44,4.55,4.55,0,0,0-2.61,4.09V389c0,1.72,0,3.42,0,5.08v2.46a13.91,13.91,0,0,0,.08,2.35,4.6,4.6,0,0,0,2.67,3.29,5,5,0,0,0,2.08.37H383l7.84,0,6.47,0a12.14,12.14,0,0,0,2.61-.11,4.71,4.71,0,0,0,1.94-1,4.78,4.78,0,0,0,1.59-2.53c.16-.68.14-1.05.17-1.05a3.53,3.53,0,0,1-.07,1.08,4.79,4.79,0,0,1-1.56,2.65,4.69,4.69,0,0,1-2,1,11.56,11.56,0,0,1-2.67.16l-6.47,0L383,403h-2.15a5.43,5.43,0,0,1-2.26-.4,5.07,5.07,0,0,1-3-3.61,14.48,14.48,0,0,1-.1-2.45V394.1c0-1.66,0-3.36,0-5.08,0-3.45,0-7,0-10.68a5.07,5.07,0,0,1,2.91-4.56,5.52,5.52,0,0,1,2.69-.48h2.61l9.94,0h4.63a5.23,5.23,0,0,1,4.13,1.53,5.09,5.09,0,0,1,1.4,3.87c0,1.31,0,2.56,0,3.76,0,4.76-.06,8.63-.08,11.36,0,1.3,0,2.34-.05,3.08l0,.81A.94.94,0,0,1,403.62,398Z" style="fill:#263238"></path><path d="M367.57,397.83a.9.9,0,0,1,0-.26c0-.2,0-.46,0-.77,0-.72,0-1.71,0-3,0-2.61-.05-6.32-.08-10.88,0-1.15,0-2.36,0-3.61,0-.62,0-1.28-.05-1.89a4.52,4.52,0,0,0-.67-1.75,4.39,4.39,0,0,0-3.34-1.9,4.15,4.15,0,0,0-2,.36,6.59,6.59,0,0,0-1.73,1.31L345.1,388.94c-2.56,2.39-5.11,4.71-7.48,7a4.14,4.14,0,0,0-1,4.25,4.19,4.19,0,0,0,3.11,2.84,11.23,11.23,0,0,0,2.19.12h2.19l4.18,0,7.52,0,6.2,0a5.5,5.5,0,0,0,5.37-4.36c.14-.66.12-1,.15-1a3.57,3.57,0,0,1-.05,1,5.35,5.35,0,0,1-1.26,2.68,5.66,5.66,0,0,1-4.21,1.95l-6.2,0-7.52,0H342a11.31,11.31,0,0,1-2.3-.12,4.77,4.77,0,0,1-2.41-7.92c2.41-2.3,4.92-4.59,7.49-7l14.5-13.44a7.27,7.27,0,0,1,1.85-1.38,4.63,4.63,0,0,1,2.25-.39,4.82,4.82,0,0,1,3.67,2.12,5,5,0,0,1,.72,1.94,18.26,18.26,0,0,1,0,1.94c0,1.25,0,2.46,0,3.61,0,4.56-.07,8.27-.09,10.88,0,1.25,0,2.24-.05,3,0,.31,0,.57,0,.77A.9.9,0,0,1,367.57,397.83Z" style="fill:#263238"></path><path d="M450.07,388.08l.56.58c.18.21.41.45.67.74l.43.48.41.62a13.71,13.71,0,0,1,2.58,8.64,16,16,0,0,1-.38,3.14,16.18,16.18,0,0,1-1.21,3.26,15.05,15.05,0,0,1-5.16,5.89,15.51,15.51,0,0,1-8.65,2.45l-10.12,0-49.88.05-29.45,0H338.24a17.7,17.7,0,0,1-4-.33,14.38,14.38,0,0,1-7.11-3.68,15.52,15.52,0,0,1-4.24-6.92,15.1,15.1,0,0,1-.14-8.11,14.84,14.84,0,0,1,1.55-3.75,16,16,0,0,1,2.51-3.15c4-3.54,7.9-6.89,11.75-10.25L350,367.93a18.8,18.8,0,0,1,6.42-3.56,20.85,20.85,0,0,1,7.11-.9l49.87.06h5.2a14.53,14.53,0,0,1,4.91.72,14,14,0,0,1,4.15,2.17,37.46,37.46,0,0,1,3.24,3c4.05,3.91,7.54,7.29,10.39,10.06l6.56,6.37,1.69,1.67.57.58-.6-.54-1.74-1.63c-1.52-1.46-3.75-3.58-6.62-6.31l-10.45-10a41.29,41.29,0,0,0-3.22-2.92,13.92,13.92,0,0,0-4.07-2.11,14.44,14.44,0,0,0-4.81-.68h-5.2l-49.87.05a20.56,20.56,0,0,0-7,.88,18.45,18.45,0,0,0-6.25,3.48l-11.35,9.86c-3.84,3.35-7.82,6.73-11.73,10.23a15.18,15.18,0,0,0-2.42,3.05,14.13,14.13,0,0,0-1.5,3.61,14.61,14.61,0,0,0,.14,7.84,15,15,0,0,0,4.09,6.68,14,14,0,0,0,6.86,3.55,16.64,16.64,0,0,0,3.87.32h41.08l49.88.06,10.12,0a15.19,15.19,0,0,0,8.49-2.37,14.77,14.77,0,0,0,5.1-5.75,16.32,16.32,0,0,0,1.21-3.2,15.69,15.69,0,0,0,.4-3.09,13.75,13.75,0,0,0-2.47-8.58l-.39-.62-.42-.49-.65-.75C450.24,388.3,450.07,388.08,450.07,388.08Z" style="fill:#263238"></path><path d="M165.39,360.25l-132.31-66a7.76,7.76,0,0,1-3.4-10.43h0a7.76,7.76,0,0,1,10.38-3.43l132.09,65Z" style="fill:#e0e0e0"></path><path d="M96.74,247.3A58.14,58.14,0,0,0,47,245.54c11,17.09,25,31.27,43.52,39.59a59.22,59.22,0,0,0,17.74,5.24,31.65,31.65,0,0,0,18-3A58.12,58.12,0,0,0,96.74,247.3Z" style="fill:#455a64"></path><path d="M125.3,286.64a.66.66,0,0,1-.23,0l-.65-.16c-.57-.14-1.43-.32-2.5-.64a88.31,88.31,0,0,1-9-3.09,126.47,126.47,0,0,1-12.73-6c-4.68-2.48-9.69-5.45-14.87-8.68l-14.56-9.17c-4.5-2.79-8.59-5.21-12.1-7.13s-6.39-3.37-8.41-4.33c-1-.49-1.8-.84-2.33-1.1l-.61-.29c-.13-.07-.2-.11-.19-.12l.22.07.62.25c.54.22,1.35.54,2.37,1,2,.9,5,2.3,8.51,4.19s7.66,4.27,12.17,7,9.41,5.9,14.59,9.13,10.16,6.21,14.82,8.71a135.33,135.33,0,0,0,12.64,6.06c3.69,1.52,6.75,2.58,8.89,3.23,1.06.35,1.9.56,2.46.74l.64.2A.73.73,0,0,1,125.3,286.64Z" style="fill:#263238"></path><path d="M126.89,287.46a.9.9,0,0,1-.22.1l-.64.26a24.92,24.92,0,0,1-2.5.9,37.74,37.74,0,0,1-9.62,1.7A49.58,49.58,0,0,1,99.5,289a62.07,62.07,0,0,1-16.4-6.74,88.32,88.32,0,0,1-14.25-10.57A117.69,117.69,0,0,1,58.7,261.29c-2.71-3.11-4.77-5.74-6.14-7.6-.69-.92-1.2-1.66-1.55-2.15-.16-.23-.28-.42-.39-.57s-.13-.2-.12-.21a1.22,1.22,0,0,1,.16.18l.43.54,1.63,2.09c1.42,1.81,3.52,4.41,6.25,7.48a125.19,125.19,0,0,0,10.2,10.23,88.87,88.87,0,0,0,14.2,10.48,62.51,62.51,0,0,0,16.25,6.73,50.41,50.41,0,0,0,14.28,1.56,39.9,39.9,0,0,0,9.57-1.52c1.13-.27,1.94-.64,2.53-.8l.65-.22A.79.79,0,0,1,126.89,287.46Z" style="fill:#263238"></path><path d="M114.78,225.27c.18,0,.26.47,0,.94s-.67.64-.79.5,0-.46.22-.82S114.6,225.24,114.78,225.27Z" style="fill:#ff9a6c"></path><path d="M79.12,228.06A4.47,4.47,0,0,1,80,223a6.12,6.12,0,0,1,4.53-6,5.42,5.42,0,0,1,8.4-4,4.53,4.53,0,0,1,8.51,1.28,4.36,4.36,0,0,1,5.78,6.47L83.72,230.4A4.46,4.46,0,0,1,79.12,228.06Z" style="fill:#e0e0e0"></path><path d="M108.1,220.56a18.5,18.5,0,0,0-24.59,4.93l-.57.77c-5.58,8.71-1.3,18.31,7.56,23.65l28.7,19h0l23.16-11.22h0l-11-9.47s4.59-8.94-3.37-14.87C124.14,230.49,115.75,225.23,108.1,220.56Z" style="fill:#ffbf9d"></path><path d="M131.4,248.15a24.09,24.09,0,0,1-10.72,8.28s7.59,2.17,12.68-6.37Z" style="fill:#ff9a6c"></path><path d="M114.48,228.37a1.42,1.42,0,0,1,.35,1.95,1.35,1.35,0,0,1-1.89.43,1.42,1.42,0,0,1-.36-1.94A1.37,1.37,0,0,1,114.48,228.37Z" style="fill:#263238"></path><path d="M111.25,225.35c0,.25-1.23.65-2.12,1.89s-.94,2.59-1.19,2.61-.27-.32-.28-.92a3.94,3.94,0,0,1,.76-2.23,3.75,3.75,0,0,1,1.88-1.37C110.87,225.16,111.23,225.23,111.25,225.35Z" style="fill:#263238"></path><path d="M106.38,238.89a1.41,1.41,0,0,1,.36,1.94,1.36,1.36,0,0,1-1.9.43,1.41,1.41,0,0,1-.35-1.94A1.35,1.35,0,0,1,106.38,238.89Z" style="fill:#263238"></path><path d="M102.5,237c0,.25-1.23.65-2.12,1.89s-.93,2.59-1.18,2.61-.28-.32-.28-.92a3.94,3.94,0,0,1,.76-2.23,3.75,3.75,0,0,1,1.87-1.37C102.12,236.85,102.48,236.91,102.5,237Z" style="fill:#263238"></path><path d="M114.6,239.61a9.76,9.76,0,0,1,1.09-2.27c.2-.34.35-.68.18-.89a2.05,2.05,0,0,0-1.09-.47l-3.08-.81c-4.35-1.19-7.84-2.29-7.79-2.46s3.62.64,8,1.83l3.06.86a2.27,2.27,0,0,1,1.36.73,1,1,0,0,1,.08.86,2.94,2.94,0,0,1-.31.59A10.63,10.63,0,0,1,114.6,239.61Z" style="fill:#263238"></path><path d="M99.57,234.6c.21.37-.84,1.24-1.74,2.55s-1.4,2.6-1.82,2.5c-.19-.05-.33-.48-.28-1.13a4.66,4.66,0,0,1,.86-2.29,4.57,4.57,0,0,1,1.85-1.56C99,234.42,99.46,234.42,99.57,234.6Z" style="fill:#e0e0e0"></path><path d="M108.87,223.65c0,.43-1,.9-1.88,1.77s-1.52,1.79-1.95,1.7c-.2-.06-.32-.42-.21-1a3.48,3.48,0,0,1,1.12-1.87,3.58,3.58,0,0,1,2-.93C108.48,223.29,108.84,223.44,108.87,223.65Z" style="fill:#e0e0e0"></path><path d="M103.85,218.66s-6.56-1.53-9.5,0c-3.55,1.9-1.25,5.51-4.06,7.74s-6.21,4-6.13,8.47c.1,4.85,2.82,4.59,6.25,7.37,13.87,11.27,16,16.88,8.69,12.69-.8-.46-2.9,1.18-6.27-.8-4.37-2.57-9.44-6-11.68-9-1.89-2.55-2.56-5.16-2.61-9-.07-6.08,3.8-11.54,6.84-14.95S97.8,213.75,103.85,218.66Z" style="fill:#e0e0e0"></path><path d="M99.26,254.3a2.69,2.69,0,0,0-3.81.82c-1,1.61-1.31,3.89,1.86,6,5.62,3.81,8.28-2.62,8.13-2.73S101.62,255.87,99.26,254.3Z" style="fill:#ffbf9d"></path><path d="M102.5,258.21s0,.15,0,.36a1.15,1.15,0,0,1-.48.75,2.94,2.94,0,0,1-2.93-.36,3.94,3.94,0,0,1-1.22-1.22,1.38,1.38,0,0,1-.25-1.25.6.6,0,0,1,.66-.39c.21,0,.3.14.33.12s0-.19-.28-.3a.75.75,0,0,0-.5,0,.89.89,0,0,0-.51.45,1.66,1.66,0,0,0,.18,1.61,4,4,0,0,0,1.33,1.4,3.09,3.09,0,0,0,3.4.22,1.31,1.31,0,0,0,.46-1C102.63,258.32,102.52,258.2,102.5,258.21Z" style="fill:#ff9a6c"></path><path d="M88.7,246.46a6.33,6.33,0,0,0,2.76-1.54,2.21,2.21,0,0,0,.18-2.9c-.33-.34-.84-.57-1-1s.38-1,.76-1.45a4.32,4.32,0,0,0,.13-5.46c.91,0,1.57-.94,1.62-1.84a9.78,9.78,0,0,0-.51-2.66,2.77,2.77,0,0,1,.43-2.57c.35-.36.86-.57,1.13-1,.45-.77-.13-1.73-.77-2.36s-1.41-1.32-1.36-2.22.8-1.4,1.38-2,1-1.56.52-2.2a1.62,1.62,0,0,0-1.18-.48A4.4,4.4,0,0,0,88.44,220a6,6,0,0,0-7.37,8.18,6,6,0,0,0-3.89,9.11A4.38,4.38,0,0,0,79.43,245a4.17,4.17,0,0,0,1.34,3.8c1.12.85,3.06.56,3.55-.75a2.43,2.43,0,0,0,4.43-2" style="fill:#e0e0e0"></path><path d="M84,248.43a1.61,1.61,0,0,0,1.3.43,2.22,2.22,0,0,0,1.46-.63,2.35,2.35,0,0,0,.68-1.89l-.2.2a6.37,6.37,0,0,0,2.16-.1,3.81,3.81,0,0,0,1.35-.55,2.63,2.63,0,0,0,.91-1,2.71,2.71,0,0,0,.24-2.24,4,4,0,0,0-.82-1.27c-.24-.26-.4-.38-.42-.37s.1.18.3.46a4.45,4.45,0,0,1,.67,1.27,2.75,2.75,0,0,1-2.31,3.35,6.53,6.53,0,0,1-2,.11l-.23,0,0,.23a2,2,0,0,1-1.78,2.25A3.44,3.44,0,0,1,84,248.43Z" style="fill:#fff"></path><path d="M79,229s.15-.11.43-.28a2.27,2.27,0,0,1,1.34-.33h.16l0-.15a8.31,8.31,0,0,1-.22-4.21,6.61,6.61,0,0,1,1.09-2.51,5.6,5.6,0,0,1,2.35-1.84,5.45,5.45,0,0,1,2.32-.43,4.47,4.47,0,0,1,2.1.6l.18.1.08-.2a3.81,3.81,0,0,1,1.93-2.08,3.73,3.73,0,0,1,2.25-.27,5,5,0,0,1,1.87.84,1.45,1.45,0,0,0-.4-.4,3.87,3.87,0,0,0-3.84-.44,4.06,4.06,0,0,0-2.15,2.23l.26-.09a4.9,4.9,0,0,0-2.26-.68,5.91,5.91,0,0,0-2.49.46,5.74,5.74,0,0,0-2.5,2,6.77,6.77,0,0,0-1.13,2.66,8.17,8.17,0,0,0,.36,4.35l.1-.14a2.3,2.3,0,0,0-1.41.44C79.1,228.78,79,228.94,79,229Z" style="fill:#fff"></path><path d="M114.68,243.74c.07-.2,1.34.32,2.69-.39s1.76-2.13,1.94-2.06.13.4-.09,1a3.45,3.45,0,0,1-1.56,1.75,3,3,0,0,1-2.22.24C114.89,244.09,114.64,243.82,114.68,243.74Z" style="fill:#263238"></path><path d="M102.2,243.33c.17,0,.22.68-.21,1.33s-1.06.86-1.14.71.26-.55.6-1.07S102,243.3,102.2,243.33Z" style="fill:#ff9a6c"></path><path d="M103.62,243.51c.16.1-.15.81-.33,1.7s-.2,1.67-.39,1.7-.47-.79-.25-1.83S103.49,243.4,103.62,243.51Z" style="fill:#ff9a6c"></path><path d="M116,226c.13.13,0,.47-.32.76s-.65.42-.77.29,0-.47.32-.76S115.92,225.89,116,226Z" style="fill:#ff9a6c"></path><path d="M116.94,259.71s.07.1.17.2a1.08,1.08,0,0,0,.56.26,4,4,0,0,1,.53.13,1,1,0,0,1,.61.48,1.64,1.64,0,0,1,.17.77,1.41,1.41,0,0,0,.07.56c0,.1.13.15.34.19a2.67,2.67,0,0,1,.71.2,1,1,0,0,1,.49.6c.08.19.11.36.16.49a.69.69,0,0,0,.37.41c.11,0,.21,0,.24,0s0,.18-.25.22a.87.87,0,0,1-.78-.46c-.17-.31-.28-.69-.5-.75a2.27,2.27,0,0,0-.56-.11,1.43,1.43,0,0,1-.43-.14,1,1,0,0,1-.37-.39,1.83,1.83,0,0,1-.13-.84,1.39,1.39,0,0,0-.06-.51c-.07-.21-.44-.32-.74-.44a1.06,1.06,0,0,1-.65-.58C116.82,259.81,116.91,259.7,116.94,259.71Z" style="fill:#ff9a6c"></path><path d="M118.16,259s0-.13.24-.18a1.06,1.06,0,0,1,.79.15,2.4,2.4,0,0,1,.79.82,3.08,3.08,0,0,0,.7.87,1.32,1.32,0,0,0,.49.2,1.15,1.15,0,0,1,.68.41,2.85,2.85,0,0,1,.34,1,.8.8,0,0,0,.31.43c.1.07.2.06.22.1s0,.15-.28.15a.9.9,0,0,1-.67-.49c-.17-.31-.22-.69-.39-.87a.67.67,0,0,0-.37-.17,1.86,1.86,0,0,1-.71-.27,3.1,3.1,0,0,1-.84-1.11,2.52,2.52,0,0,0-.53-.74C118.55,259,118.2,259,118.16,259Z" style="fill:#ff9a6c"></path><path d="M109.15,241.86c0,.19-.89.28-1.62,1s-.89,1.57-1.07,1.56-.18-.24-.12-.65a2.45,2.45,0,0,1,.74-1.38,2.5,2.5,0,0,1,1.42-.68C108.91,241.68,109.15,241.78,109.15,241.86Z" style="fill:#ff9a6c"></path><path d="M100.19,230.28c0-.09.1-.19.33-.22a1.14,1.14,0,0,1,.82.28,1.08,1.08,0,0,1,.4.77c0,.23-.08.36-.16.36s-.33-.36-.66-.63S100.23,230.46,100.19,230.28Z" style="fill:#ff9a6c"></path><path d="M103.88,230.06c0,.08-.11.22-.4.29a1.8,1.8,0,0,1-1.12-.1,1.73,1.73,0,0,1-.85-.75c-.14-.26-.14-.45-.06-.49s.54.38,1.16.64S103.82,229.88,103.88,230.06Z" style="fill:#ff9a6c"></path><path d="M118.64,267.84s6.43-4.09,12-8.15a33.14,33.14,0,0,0,6.92-6.59l2,.17,10.7.57c6.49,1.35,15.18,6.42,20.24,8.6s16.74,6.51,23,8.83a73,73,0,0,1,8.39,3.71l22.71,11.79s1,2.86-.65,13.91-22.39,23.72-22.39,23.72-13.55,2.86-18-.54c-3.81-2.93-18.9-10.16-18.9-10.16S130.88,302,126.21,298C116.54,289.64,115.44,285.05,118.64,267.84Z" style="fill:#FF725E"></path><path d="M437.3,298.22c-.4-3.38-6.33-11.23-9.85-15.64a7.56,7.56,0,0,0-6.54-2.82l-30.35,2.52-81.62-5.22-92.74,1-22.63-5.3-28.18,47.62,18.15,5.43,254.68-2.37C438.38,324.2,439.57,317.55,437.3,298.22Z" style="fill:#455a64"></path><path d="M147.65,284.19s23.71,13.53,24.76,13.3S198.35,272,198.35,272l11.37,4.3L185,314.88a11.88,11.88,0,0,1-15.33,4.47L133,301.49Z" style="fill:#ffbf9d"></path><path d="M193.45,273s1-3.76,3.51-3.65c0,0,2.56-.44,3.5-.49a16.26,16.26,0,0,1,2,0l5.12.23a3.23,3.23,0,0,1,2.73-1.68c1.76.1,2,2,2,2l-.13,3.11s1.35-.9,2.26.08,1.16,2.8.72,3-1.39.84-1.39.84l.23,2.05a12,12,0,0,1-2.52,1.45c-.5,0-3.5.35-3.5.35l-11.37-4.17S193.57,274.26,193.45,273Z" style="fill:#ffbf9d"></path><path d="M213.47,272.19a1.49,1.49,0,0,0,.17-1.47c-.32-1-.78-1.68-1.69-1.73s-4.89,1-3.29,2.64a3.11,3.11,0,0,0,3.48.94A5.21,5.21,0,0,0,213.47,272.19Z" style="fill:#ffbf9d"></path><path d="M213.47,272.19s-.17.14-.52.28a3.27,3.27,0,0,1-.66.2c-.27,0-.52.12-.87.19a2.92,2.92,0,0,1-1.14,0,3.15,3.15,0,0,1-1.17-.56,2.74,2.74,0,0,1-1-1.11,1.33,1.33,0,0,1,0-.45,1.46,1.46,0,0,1,.16-.41,1.92,1.92,0,0,1,.59-.58,6.79,6.79,0,0,1,2.77-.93,1.72,1.72,0,0,1,1.29.36,2.57,2.57,0,0,1,.66.94,2.32,2.32,0,0,1,.22,1.59c-.11.38-.3.51-.31.49s.1-.18.16-.53a2.42,2.42,0,0,0-.34-1.43,2.28,2.28,0,0,0-.6-.79,1.34,1.34,0,0,0-1.05-.25,6.64,6.64,0,0,0-2.57.89c-.38.26-.7.62-.54,1a2.59,2.59,0,0,0,.8.93,2.62,2.62,0,0,0,2,.58c.31,0,.63-.12.89-.13a5.71,5.71,0,0,0,.64-.12A2.86,2.86,0,0,1,213.47,272.19Z" style="fill:#ff9a6c"></path><path d="M208.35,268.15a2.47,2.47,0,0,0-1.58-2c-1.4-.45-4.33-.48-4.81.63s-.21,1.6.34,1.85a43.53,43.53,0,0,0,5.33.32Z" style="fill:#ffbf9d"></path><path d="M208.35,268.15a4,4,0,0,1-.64.89l0,0h-.05c-.69,0-1.7,0-2.92,0-.61,0-1.27,0-2-.12a1.69,1.69,0,0,1-.58-.14,1.12,1.12,0,0,1-.49-.43,1.54,1.54,0,0,1,0-1.26,2.41,2.41,0,0,1,.16-.42,1.3,1.3,0,0,1,.31-.39,2.19,2.19,0,0,1,.79-.4,5.48,5.48,0,0,1,1.57-.21,6.54,6.54,0,0,1,2.62.45,2.34,2.34,0,0,1,1.17,1.36c.14.4.13.64.1.65s-.07-.23-.24-.59A2.36,2.36,0,0,0,207,266.4a6.86,6.86,0,0,0-2.49-.33,5.66,5.66,0,0,0-1.46.21,2.21,2.21,0,0,0-.65.33.82.82,0,0,0-.2.26,2.24,2.24,0,0,0-.14.36,1.2,1.2,0,0,0,0,.93.73.73,0,0,0,.32.28,1.65,1.65,0,0,0,.45.11c.68.08,1.34.12,1.95.16l2.91.16-.08,0A5.26,5.26,0,0,1,208.35,268.15Z" style="fill:#ff9a6c"></path><path d="M213.73,276.51s.82-.95,1.41-.63a3.82,3.82,0,0,1,.94,2.55c-.12.35-2.41.86-2.29.25A11,11,0,0,0,213.73,276.51Z" style="fill:#ffbf9d"></path><path d="M213.73,276.51a3.67,3.67,0,0,1,.24,1.33,5.5,5.5,0,0,1,0,.71,1.23,1.23,0,0,0,0,.17h0a.77.77,0,0,0,.28,0,3.85,3.85,0,0,0,1.59-.4s0,0,0,0,0,0,0,0a1.41,1.41,0,0,0,0-.2,3.07,3.07,0,0,0-.07-.42,5.94,5.94,0,0,0-.23-.81c-.18-.48-.41-1-.73-.94a1.6,1.6,0,0,0-.81.35c-.19.13-.29.21-.31.2s0-.14.2-.32a1.52,1.52,0,0,1,.91-.52.79.79,0,0,1,.7.37,3,3,0,0,1,.4.73,6.52,6.52,0,0,1,.26.85,3.55,3.55,0,0,1,.09.47,2.35,2.35,0,0,1,0,.27.58.58,0,0,1-.06.19.41.41,0,0,1-.14.15,2.83,2.83,0,0,1-.94.36,4,4,0,0,1-.91.09.94.94,0,0,1-.48-.13.35.35,0,0,1-.15-.31c0-.12,0-.13,0-.2a5.07,5.07,0,0,0,0-.66A5.91,5.91,0,0,1,213.73,276.51Z" style="fill:#ff9a6c"></path><path d="M159.77,290l-17.7,23.28s-13.81-12.16-19.85-18.49c-5.39-5.65-4.68-11.17.62-16.07s15.74-1.78,20.07.18C147.89,281.13,159.77,290,159.77,290Z" style="fill:#FF725E"></path><path d="M159.77,290a2.05,2.05,0,0,1-.5-.28l-1.37-.9c-1.18-.81-2.9-1.95-5-3.33s-4.72-3-7.67-4.62a47.1,47.1,0,0,0-10-4.36,13.94,13.94,0,0,0-10.45,1.11,10.83,10.83,0,0,0-5.48,6.56,9.56,9.56,0,0,0,.21,5.85,15.2,15.2,0,0,0,1,2,5.67,5.67,0,0,1-1.18-1.89,9.57,9.57,0,0,1-.38-6,11.12,11.12,0,0,1,5.61-6.9,14.43,14.43,0,0,1,5.1-1.65,14,14,0,0,1,5.73.45,45.92,45.92,0,0,1,10.08,4.44c2.94,1.66,5.5,3.32,7.63,4.74s3.8,2.62,5,3.48l1.31,1A2.68,2.68,0,0,1,159.77,290Z" style="fill:#263238"></path><path d="M117.87,269.17s9.94-2.83,14.69-7.68A82.86,82.86,0,0,0,140,253l-2.78-.17s-6.13,8.72-19,14Z" style="fill:#e0e0e0"></path><path d="M117.93,268.57a1.39,1.39,0,0,1,0,.36,6.94,6.94,0,0,1-.18,1.05,9.68,9.68,0,0,1-1.7,3.52,9.4,9.4,0,0,1-2,1.93,1.18,1.18,0,0,1-.82.31,1,1,0,0,1-.76-.59,2.48,2.48,0,0,1,.16-1.73,9.34,9.34,0,0,1,4.88-5.33l1.92-.87-1.64,1.32a9.76,9.76,0,0,1-1.89,1.19,21.72,21.72,0,0,1-7.87,1.58,1.6,1.6,0,0,1-1-.16.72.72,0,0,1-.32-.55,1,1,0,0,1,.13-.55,2.2,2.2,0,0,1,.65-.7c.24-.16.48-.33.72-.46a9.12,9.12,0,0,1,2.89-1.09,9.31,9.31,0,0,1,4.42.19,6.3,6.3,0,0,1,1.12.43,1.45,1.45,0,0,1,.37.22c0,.05-.55-.21-1.54-.45a9.62,9.62,0,0,0-4.29,0,8.94,8.94,0,0,0-2.74,1.1,3.24,3.24,0,0,0-1.18,1c-.11.22-.1.38,0,.48a1.25,1.25,0,0,0,.73.06,21.63,21.63,0,0,0,7.67-1.57,8.87,8.87,0,0,0,1.79-1.11l.28.45a8.91,8.91,0,0,0-4.65,5,2.1,2.1,0,0,0-.19,1.39.53.53,0,0,0,.39.33.82.82,0,0,0,.52-.21,9.86,9.86,0,0,0,1.92-1.81,10.19,10.19,0,0,0,1.79-3.36C117.82,269.06,117.88,268.56,117.93,268.57Z" style="fill:#e0e0e0"></path><path d="M426.22,320.47c0,.14-53,.5-118.26.79s-118.28.41-118.28.27,52.94-.5,118.28-.79S426.22,320.32,426.22,320.47Z" style="fill:#263238"></path></g><g id="freepik--Table--inject-11"><path d="M47.43,383H30.12V348.46a7.37,7.37,0,0,1,7.37-7.37h2.57a7.37,7.37,0,0,1,7.37,7.37Z" style="fill:#e0e0e0"></path><path d="M47.43,383s0-.11,0-.31,0-.51,0-.86c0-.8,0-1.9,0-3.3,0-2.88-.06-7-.09-12s-.05-11.07-.08-17.74a7.15,7.15,0,0,0-5.83-7.29,14.17,14.17,0,0,0-2.71-.12,11.76,11.76,0,0,0-2.73.18,7.11,7.11,0,0,0-5.41,5.59,13.5,13.5,0,0,0-.13,2.71c0,1.84,0,3.65,0,5.42,0,3.56,0,7,0,10.27,0,6.54,0,12.46-.06,17.47l-.18-.19,12.61.1,3.47.05.91,0,.32,0a1.32,1.32,0,0,1-.28,0l-.88,0-3.42.05-12.73.1h-.19V383c0-5,0-10.93-.05-17.47,0-3.28,0-6.71,0-10.27v-5.42A14.16,14.16,0,0,1,30,347a7.62,7.62,0,0,1,5.81-6,12.49,12.49,0,0,1,2.84-.19,14.69,14.69,0,0,1,2.8.14,7.63,7.63,0,0,1,6.22,7.79c0,6.72-.05,12.78-.07,17.89s-.07,9.13-.09,12c0,1.38,0,2.46,0,3.24,0,.34,0,.61,0,.83S47.44,383,47.43,383Z" style="fill:#263238"></path><path d="M40.46,465.11a8.07,8.07,0,1,0,8.07-7.81A7.95,7.95,0,0,0,40.46,465.11Z" style="fill:#263238"></path><path d="M93,465.11a8.07,8.07,0,1,0,8.06-7.81A7.94,7.94,0,0,0,93,465.11Z" style="fill:#263238"></path><rect x="31.53" y="340.17" width="87.8" height="117.13" style="fill:#455a64"></rect><path d="M87.7,457.09c-.17,0-.31-26.17-.31-58.44s.14-58.45.31-58.45.3,26.17.3,58.45S87.86,457.09,87.7,457.09Z" style="fill:#263238"></path><path d="M119.31,346.81c0,.17-7.14.3-16,.3s-16-.13-16-.3,7.14-.3,16-.3S119.31,346.64,119.31,346.81Z" style="fill:#263238"></path><path d="M119.33,393.54c0,.16-7,.3-15.75.3s-15.76-.14-15.76-.3,7.06-.31,15.76-.31S119.33,393.37,119.33,393.54Z" style="fill:#263238"></path><polygon points="98.89 346.81 101.29 349.39 112.27 349.39 114.07 346.81 98.89 346.81" style="fill:#263238"></polygon><rect x="36.26" y="344.65" width="45.64" height="76.09" rx="2.55" style="fill:#455a64"></rect><path d="M79.35,420.74s.21,0,.6-.11a2.49,2.49,0,0,0,1.86-2.21c0-.48,0-1,0-1.6,0-1.17,0-2.52,0-4,0-6.08,0-14.83-.09-25.62s0-23.71-.07-38v-1.35a4.23,4.23,0,0,0-.09-1.26A2.27,2.27,0,0,0,79.84,345a7.76,7.76,0,0,0-1.31-.05H38.81a2.24,2.24,0,0,0-2.1,1.45,3.54,3.54,0,0,0-.15,1.41v7.6c0,4,0,8,0,11.87,0,7.78,0,15.29,0,22.44s0,13.95,0,20.31c0,1.59,0,3.15,0,4.69,0,.76,0,1.52,0,2.28v1.12a2.53,2.53,0,0,0,.19,1,2.33,2.33,0,0,0,1.44,1.29,8.73,8.73,0,0,0,2.07.11h4.15l25.62.1,7,.05,1.81,0,.62,0-.62,0-1.81,0-7,.05-25.62.1H39.12a3.43,3.43,0,0,1-1.13-.12,2.78,2.78,0,0,1-1.73-1.54,2.83,2.83,0,0,1-.24-1.18v-3.4c0-1.54,0-3.1,0-4.69,0-6.36,0-13.16,0-20.31s0-14.66,0-22.44V347.81a4.26,4.26,0,0,1,.18-1.63,2.87,2.87,0,0,1,2.67-1.84H78.53a8,8,0,0,1,1.44.07,2.83,2.83,0,0,1,2.1,2,5.06,5.06,0,0,1,.11,1.42v1.35c0,14.29-.05,27.17-.07,38S82,406.72,82,412.8c0,1.5,0,2.85,0,4,0,.58,0,1.11,0,1.61a2.58,2.58,0,0,1-.48,1.27,2.62,2.62,0,0,1-1.51,1A2.08,2.08,0,0,1,79.35,420.74Z" style="fill:#263238"></path><path d="M119.33,457.3s0-.18,0-.53,0-.89,0-1.55c0-1.4,0-3.4-.06-6,0-5.22,0-12.71-.09-22,0-18.57-.06-44.17-.09-72.45V340.17l.3.3-62.54-.1-18.53-.09-5,0-1.29,0-.44,0,.44,0,1.29,0,5-.05L56.79,340l62.54-.11h.3v15c0,28.28-.06,53.88-.08,72.45,0,9.25-.08,16.74-.1,22,0,2.57,0,4.57-.06,6,0,.66,0,1.17,0,1.55S119.33,457.3,119.33,457.3Z" style="fill:#263238"></path><rect x="47.67" y="340.2" width="2.7" height="4.76" style="fill:#263238"></rect><rect x="66.13" y="340.2" width="2.7" height="4.76" style="fill:#263238"></rect><path d="M67.41,262.66s0,.06,0,.17l0,.51c0,.46-.1,1.11-.18,1.94,0,.43-.08.89-.13,1.41s-.08,1.07-.13,1.67c-.08,1.2-.2,2.57-.26,4.08,0,.76-.07,1.55-.11,2.38s0,1.69-.07,2.58c-.06,1.78,0,3.68,0,5.69.06,4,.26,8.41.67,13s1,9,1.72,12.93c.36,2,.68,3.84,1.07,5.58.19.87.35,1.72.54,2.53s.37,1.57.54,2.31c.33,1.48.7,2.8,1,4,.16.58.3,1.12.43,1.62s.27.95.39,1.36c.23.8.4,1.43.53,1.88l.13.49a1.29,1.29,0,0,1,0,.17,1,1,0,0,1-.06-.17l-.16-.48c-.13-.44-.33-1.07-.57-1.87-.13-.4-.26-.86-.41-1.35l-.45-1.62c-.31-1.16-.69-2.48-1-4-.18-.74-.36-1.51-.56-2.31s-.36-1.65-.55-2.53c-.39-1.74-.73-3.61-1.09-5.59-.69-3.95-1.3-8.32-1.74-12.94s-.6-9-.66-13c0-2,0-3.91.06-5.7,0-.89,0-1.75.08-2.58s.09-1.62.13-2.38c.07-1.51.2-2.88.3-4.08,0-.6.1-1.16.14-1.67s.11-1,.16-1.41c.1-.83.17-1.48.22-1.94,0-.21,0-.38.07-.5S67.4,262.66,67.41,262.66Z" style="fill:#263238"></path><path d="M58,278.87a6.42,6.42,0,0,1,.43.6c.26.39.64,1,1.09,1.68.9,1.44,2.12,3.43,3.38,5.69s2.3,4.36,3,5.92c.34.77.59,1.41.75,1.86a3.22,3.22,0,0,1,.23.7,4,4,0,0,1-.31-.67c-.19-.43-.47-1.06-.83-1.82-.71-1.53-1.77-3.61-3-5.87s-2.45-4.26-3.32-5.71l-1-1.73A3.56,3.56,0,0,1,58,278.87Z" style="fill:#263238"></path><path d="M67.21,260.23A10.4,10.4,0,0,1,57.6,265c-.74-.07-1.61-.34-1.82-1.06s.46-1.48,1.12-1.93a12.26,12.26,0,0,1,9.57-1.79A14,14,0,0,1,59,257c-.8-.68-1.59-1.7-1.21-2.68s1.57-1.21,2.58-1.15a8.24,8.24,0,0,1,7.33,6.47A7.74,7.74,0,0,1,70,251.09c.94-.77,2.44-1.24,3.27-.36a2.57,2.57,0,0,1,.43,2.09,9.9,9.9,0,0,1-4.43,7,8.67,8.67,0,0,1,9.46-1,3,3,0,0,1,1.87,2.43c0,1.36-1.47,2.23-2.79,2.56a11.31,11.31,0,0,1-9.6-2,6.45,6.45,0,0,1,2.12,5.62c-.18,1.36-1.18,2.86-2.54,2.66s-1.85-1.75-2-3.06a16,16,0,0,1,.92-7" style="fill:#FF725E"></path><path d="M60.26,262.87A36.23,36.23,0,0,1,64,261.13a34.34,34.34,0,0,1,4-.93,8.93,8.93,0,0,0-4.12.58A9.07,9.07,0,0,0,60.26,262.87Z" style="fill:#263238"></path><path d="M61.65,257a16.74,16.74,0,0,1,3.1,1.25c1.58,1,2.61,2.08,2.7,2A7.29,7.29,0,0,0,64.93,258,5.54,5.54,0,0,0,61.65,257Z" style="fill:#263238"></path><path d="M70.54,254.79a6,6,0,0,0-2.27,2.35,5.15,5.15,0,0,0-.88,3.15,15.45,15.45,0,0,1,1.19-3A31.92,31.92,0,0,1,70.54,254.79Z" style="fill:#263238"></path><path d="M68.92,259.8a1.27,1.27,0,0,0-2.3-.44,3.4,3.4,0,0,1,.82.83,5.41,5.41,0,0,1,1.48-.39" style="fill:#fafafa"></path><path d="M77.07,261.35a4.44,4.44,0,0,0-1.32-.66,13.12,13.12,0,0,0-7-.6,4.48,4.48,0,0,0-1.41.43,26.34,26.34,0,0,1,4.93-.25A25.5,25.5,0,0,1,77.07,261.35Z" style="fill:#263238"></path><path d="M57.36,279.73a7.52,7.52,0,0,1-1.71,7.59c-.38.39-.93.76-1.43.55s-.62-.94-.58-1.51A8.87,8.87,0,0,1,57,280.13a10.17,10.17,0,0,1-5.23,2.76c-.75.14-1.69.12-2.07-.54a1.78,1.78,0,0,1,.53-2,6,6,0,0,1,7-1.19A5.64,5.64,0,0,1,53.45,274c0-.87.42-1.94,1.29-2a1.87,1.87,0,0,1,1.38.72A7.17,7.17,0,0,1,58,278.38a6.28,6.28,0,0,1,3.73-5.81,2.21,2.21,0,0,1,2.23.05c.77.63.59,1.85.17,2.75a8.25,8.25,0,0,1-5.52,4.5,4.66,4.66,0,0,1,4.14,1.36c.68.72,1.08,2,.34,2.65s-1.83.24-2.63-.28A11.72,11.72,0,0,1,57,279.88" style="fill:#FF725E"></path><path d="M55.68,284.86a23.21,23.21,0,0,1,.71-2.89,25.1,25.1,0,0,1,1.3-2.69,6.57,6.57,0,0,0-1.55,2.6A6.39,6.39,0,0,0,55.68,284.86Z" style="fill:#263238"></path><path d="M53,281.41a12.76,12.76,0,0,1,2.12-1.18c1.26-.46,2.37-.52,2.36-.61A5,5,0,0,0,55,280,4.08,4.08,0,0,0,53,281.41Z" style="fill:#263238"></path><path d="M55.81,275.36a4.29,4.29,0,0,0,.29,2.36,3.58,3.58,0,0,0,1.38,1.93,10.18,10.18,0,0,1-1.13-2A18.51,18.51,0,0,1,55.81,275.36Z" style="fill:#263238"></path><path d="M57.9,278.57a1,1,0,0,0-1,.11,1,1,0,0,0-.28,1,2.64,2.64,0,0,1,.84-.08,3.72,3.72,0,0,1,.46-1" style="fill:#fafafa"></path><path d="M62.49,274.67a3.1,3.1,0,0,0-1,.44,9.82,9.82,0,0,0-2,1.61A9.1,9.1,0,0,0,58,278.81a3.06,3.06,0,0,0-.4,1,17.65,17.65,0,0,1,2.11-2.9A19.24,19.24,0,0,1,62.49,274.67Z" style="fill:#263238"></path><path d="M78.67,287.71s0,.07-.14.18l-.44.48c-.4.41-.94,1-1.6,1.78s-1.4,1.72-2.17,2.81a40,40,0,0,0-2.27,3.69,38.53,38.53,0,0,0-1.81,4c-.48,1.24-.85,2.38-1.13,3.36s-.48,1.76-.6,2.31l-.15.64c0,.14-.06.22-.07.21a.73.73,0,0,1,0-.22c0-.18.07-.39.11-.65.09-.56.27-1.36.53-2.34a33.82,33.82,0,0,1,1.08-3.4,37.45,37.45,0,0,1,1.8-4,37.84,37.84,0,0,1,2.31-3.71A35.35,35.35,0,0,1,76.36,290c.68-.76,1.25-1.35,1.66-1.74l.47-.44Z" style="fill:#263238"></path><path d="M78.76,287.87A7.55,7.55,0,0,1,71,288c-.47-.28-1-.72-.87-1.26s.76-.83,1.33-.92a8.85,8.85,0,0,1,6.84,1.77,10.18,10.18,0,0,1-3.92-4.42c-.32-.69-.52-1.61,0-2.14a1.78,1.78,0,0,1,2,.05,6,6,0,0,1,2.82,6.51,5.63,5.63,0,0,1,4.14-4.91c.85-.21,2-.06,2.26.77a1.87,1.87,0,0,1-.37,1.51,7.18,7.18,0,0,1-5.06,3.22,6.29,6.29,0,0,1,6.54,2.24,2.19,2.19,0,0,1,.48,2.17c-.42.9-1.65,1-2.62.83a8.22,8.22,0,0,1-5.69-4.3,4.72,4.72,0,0,1-.33,4.35c-.54.84-1.67,1.52-2.5,1s-.67-1.72-.35-2.62a11.69,11.69,0,0,1,2.77-4.32" style="fill:#FF725E"></path><path d="M73.38,287.47a24.65,24.65,0,0,1,3,0,24.87,24.87,0,0,1,2.92.62,6.69,6.69,0,0,0-2.89-.89A6.49,6.49,0,0,0,73.38,287.47Z" style="fill:#263238"></path><path d="M76.09,284.06a11.27,11.27,0,0,1,1.65,1.77c.75,1.11,1.08,2.18,1.16,2.14a5,5,0,0,0-.94-2.29A3.87,3.87,0,0,0,76.09,284.06Z" style="fill:#263238"></path><path d="M82.63,285.32a4.45,4.45,0,0,0-2.22.85,3.63,3.63,0,0,0-1.54,1.8,9.6,9.6,0,0,1,1.69-1.58A22.24,22.24,0,0,1,82.63,285.32Z" style="fill:#263238"></path><path d="M80,288.12a1,1,0,0,0-.36-1,.94.94,0,0,0-1,0,2.56,2.56,0,0,1,.29.8,3.51,3.51,0,0,1,1.09.2" style="fill:#fafafa"></path><path d="M84.9,291.65a3,3,0,0,0-.66-.84,9.15,9.15,0,0,0-2-1.58,9.4,9.4,0,0,0-2.4-1,3,3,0,0,0-1-.15,18.11,18.11,0,0,1,3.32,1.36A18.43,18.43,0,0,1,84.9,291.65Z" style="fill:#263238"></path><path d="M77.87,273.71a3.11,3.11,0,0,1-.49.5L76,275.55c-1.14,1.13-2.69,2.75-4.27,4.63s-2.9,3.69-3.82,5l-1.07,1.58a3.82,3.82,0,0,1-.41.57,3,3,0,0,1,.33-.62c.22-.39.57-1,1-1.63A55,55,0,0,1,71.55,280a54.47,54.47,0,0,1,4.34-4.61c.6-.55,1.08-1,1.43-1.28A4.61,4.61,0,0,1,77.87,273.71Z" style="fill:#263238"></path><path d="M79,276.12a6.62,6.62,0,0,1-1.79.1,6.51,6.51,0,0,1-1.78-.14,7.14,7.14,0,0,1,1.79-.1A6.51,6.51,0,0,1,79,276.12Z" style="fill:#263238"></path><path d="M78.75,275.69a.66.66,0,0,0-.54.34.84.84,0,0,0,0,.66,1,1,0,0,0,.9.69,1,1,0,0,0,.94-.63,1,1,0,0,0-.34-1.07.92.92,0,0,0-1.11.06" style="fill:#fff"></path><path d="M78.56,275.74s0-.09.18-.17a.93.93,0,0,1,.68-.1,1,1,0,0,1,.72.74,1,1,0,0,1,0,.64,1.1,1.1,0,0,1-.47.51,1.13,1.13,0,0,1-.67.13,1.1,1.1,0,0,1-.57-.28,1,1,0,0,1-.34-1,.73.73,0,0,1,.45-.53c.16-.05.26,0,.25,0s-.08,0-.21.1a.64.64,0,0,0-.32.48.87.87,0,0,0,.31.77.86.86,0,0,0,1,.11.81.81,0,0,0,.41-.89.77.77,0,0,0-.54-.62.92.92,0,0,0-.6,0C78.64,275.71,78.57,275.76,78.56,275.74Z" style="fill:#263238"></path><path d="M73,273.18a.65.65,0,0,0-.54.35.82.82,0,0,0,0,.65,1,1,0,0,0,.9.69,1,1,0,0,0,.94-.63,1,1,0,0,0-.34-1.07.92.92,0,0,0-1.11.07" style="fill:#fff"></path><path d="M72.85,273.24s0-.09.18-.18a.95.95,0,0,1,1.4.64,1,1,0,0,1,0,.64,1.1,1.1,0,0,1-.47.51,1.06,1.06,0,0,1-.67.13,1.1,1.1,0,0,1-.57-.28,1,1,0,0,1-.34-1,.75.75,0,0,1,.45-.54c.16-.05.26,0,.25,0s-.08,0-.21.1a.66.66,0,0,0-.32.48.9.9,0,0,0,.31.78.87.87,0,0,0,1,.1.81.81,0,0,0,.41-.89.79.79,0,0,0-.54-.62.85.85,0,0,0-.6,0C72.93,273.2,72.86,273.25,72.85,273.24Z" style="fill:#263238"></path><path d="M77.92,273.87a.64.64,0,0,0,.56.31.86.86,0,0,0,.6-.27,1,1,0,0,0,.17-1.13,1,1,0,0,0-1-.52.94.94,0,0,0-.78.81.92.92,0,0,0,.59.95" style="fill:#fff"></path><path d="M78.06,274s-.09,0-.24-.08a.89.89,0,0,1-.41-.55,1,1,0,0,1,.88-1.25,1,1,0,0,1,.67.16,1.08,1.08,0,0,1-.23,1.93.72.72,0,0,1-.68-.14c-.12-.12-.14-.22-.13-.22s.06.07.19.14a.63.63,0,0,0,.57.05.89.89,0,0,0,.15-1.56.84.84,0,0,0-1.26.85,1,1,0,0,0,.31.52C78,274,78.07,274,78.06,274Z" style="fill:#263238"></path><path d="M73.34,274.82a63.53,63.53,0,0,1-.75,4.17,6.74,6.74,0,0,1,.17-2.12A7.13,7.13,0,0,1,73.34,274.82Z" style="fill:#263238"></path><path d="M58.66,297.74a3,3,0,0,1,.52.46c.33.31.8.78,1.35,1.36a55.51,55.51,0,0,1,4.07,4.85,55.84,55.84,0,0,1,3.47,5.29c.4.7.71,1.28.91,1.69a4.64,4.64,0,0,1,.3.63,3.16,3.16,0,0,1-.38-.59c-.23-.39-.56-.95-1-1.64-.84-1.38-2-3.26-3.52-5.23s-2.91-3.68-4-4.88l-1.29-1.41A3.17,3.17,0,0,1,58.66,297.74Z" style="fill:#263238"></path><path d="M57.4,300.08a6.78,6.78,0,0,1,1.79,0,6.51,6.51,0,0,1,1.78.21,6.74,6.74,0,0,1-1.79,0A6.59,6.59,0,0,1,57.4,300.08Z" style="fill:#263238"></path><path d="M57.66,299.66a.66.66,0,0,1,.53.38.86.86,0,0,1,0,.65,1,1,0,0,1-.94.64,1,1,0,0,1-.9-.68.94.94,0,0,1,.4-1,.92.92,0,0,1,1.11.13" style="fill:#fff"></path><path d="M57.86,299.73s-.08-.05-.22-.1a.93.93,0,0,0-.6-.06.84.84,0,0,0-.58.59.8.8,0,0,0,.36.91.84.84,0,0,0,1,0,.86.86,0,0,0,.36-.76.67.67,0,0,0-.29-.5c-.12-.08-.21-.09-.21-.11s.1,0,.26,0a.71.71,0,0,1,.41.56,1,1,0,0,1-.39.95,1.17,1.17,0,0,1-.59.25,1.06,1.06,0,0,1-.66-.17,1,1,0,0,1-.43-.54,1,1,0,0,1,0-.64,1,1,0,0,1,.76-.7,1,1,0,0,1,.68.14C57.82,299.64,57.87,299.72,57.86,299.73Z" style="fill:#263238"></path><path d="M63.51,297.49a.64.64,0,0,1,.52.38.82.82,0,0,1,0,.65,1,1,0,0,1-.94.64,1,1,0,0,1-.9-.68.94.94,0,0,1,.39-1.05.92.92,0,0,1,1.11.13" style="fill:#fff"></path><path d="M63.7,297.56s-.08-.05-.21-.11a1,1,0,0,0-.6-.05.83.83,0,0,0-.22,1.5.86.86,0,0,0,1,0,.88.88,0,0,0,.36-.76.67.67,0,0,0-.29-.5c-.12-.08-.21-.09-.21-.11s.09,0,.25,0a.72.72,0,0,1,.42.56,1,1,0,0,1-.39.95,1.08,1.08,0,0,1-.59.24,1,1,0,0,1-.67-.17,1,1,0,0,1-.43-.53,1,1,0,0,1,0-.64,1,1,0,0,1,1.44-.56C63.67,297.47,63.71,297.55,63.7,297.56Z" style="fill:#263238"></path><path d="M58.6,297.9a.62.62,0,0,1-.58.27.86.86,0,0,1-.58-.31,1,1,0,0,1-.1-1.13,1,1,0,0,1,1-.46,1,1,0,0,1,.73.85.91.91,0,0,1-.65.91" style="fill:#fff"></path><path d="M58.45,298s.08,0,.19-.13a1,1,0,0,0,.34-.51.83.83,0,0,0-1.21-.91.83.83,0,0,0-.43.88.86.86,0,0,0,.49.68.68.68,0,0,0,.58,0c.12-.07.17-.15.19-.13s0,.1-.14.2a.7.7,0,0,1-.69.1,1,1,0,0,1-.65-.8,1.07,1.07,0,0,1,.07-.63,1.1,1.1,0,0,1,.47-.51,1.13,1.13,0,0,1,.67-.12,1.08,1.08,0,0,1,.57.3,1,1,0,0,1,.24,1,.91.91,0,0,1-.44.52C58.55,298.05,58.45,298.05,58.45,298Z" style="fill:#263238"></path><path d="M63.12,299.11a7,7,0,0,1,.46,2.08,7.33,7.33,0,0,1,.05,2.13,14.24,14.24,0,0,1-.29-2.1A13.92,13.92,0,0,1,63.12,299.11Z" style="fill:#263238"></path><path d="M77.09,337.22c2.16-20.19-3.17-31.91-3.17-31.91H63.11c-5.14,9.12-4.87,22.07-3.46,32.28L60.4,340H76.63Z" style="fill:#455a64"></path><path d="M75.14,308.49a1.89,1.89,0,0,1-.52.07c-.33,0-.82.07-1.43.1-1.2.07-2.88.13-4.72.1s-3.52-.11-4.73-.21l-1.42-.14a1.88,1.88,0,0,1-.52-.09,3.06,3.06,0,0,1,.53,0l1.42.07c1.21.06,2.88.13,4.72.16s3.51,0,4.72,0l1.43,0A2.59,2.59,0,0,1,75.14,308.49Z" style="fill:#fff"></path><path d="M75.68,312.17a3.65,3.65,0,0,1-.59.07c-.38,0-.93.07-1.62.11-1.36.06-3.25.1-5.34.08s-4-.12-5.34-.22l-1.61-.14-.59-.09a2.74,2.74,0,0,1,.6,0l1.61.08c1.37.06,3.25.13,5.33.15s4,0,5.34,0l1.62,0A2.46,2.46,0,0,1,75.68,312.17Z" style="fill:#fff"></path><path d="M76.85,316a3.82,3.82,0,0,1-.68.08c-.43,0-1.07.07-1.85.1-1.56.06-3.73.08-6.12,0s-4.55-.13-6.11-.24c-.78-.06-1.41-.11-1.85-.16a3.8,3.8,0,0,1-.67-.09,3.52,3.52,0,0,1,.68,0l1.85.09c1.56.07,3.72.14,6.11.18s4.54.05,6.11,0l1.85,0Z" style="fill:#fff"></path><path d="M77.14,319.89a6,6,0,0,1-.7.08c-.44,0-1.1.07-1.9.1-1.61.06-3.84.08-6.3,0s-4.68-.13-6.29-.23c-.8-.06-1.45-.11-1.9-.16l-.69-.09a3.74,3.74,0,0,1,.7,0l1.9.09c1.61.07,3.83.14,6.29.18s4.68,0,6.29,0l1.9,0A3.15,3.15,0,0,1,77.14,319.89Z" style="fill:#fff"></path><path d="M77.52,324l-.19,0-.55,0c-.47,0-1.16.07-2,.09-1.7.05-4,0-6.63,0s-4.94-.19-6.63-.31c-.85-.06-1.53-.12-2-.17l-.54-.06-.19,0H59l.55,0,2,.11c1.69.08,4,.17,6.62.25s4.93.1,6.63.09l2,0h.55C77.45,323.93,77.52,323.94,77.52,324Z" style="fill:#fff"></path><path d="M77.71,327.8l-.19,0-.54.05c-.47,0-1.16.06-2,.08-1.7.05-4,0-6.63,0s-4.93-.18-6.63-.3c-.84-.06-1.53-.12-2-.17l-.54-.07a.88.88,0,0,1-.19,0h.19l.55,0,2,.1c1.7.08,4,.18,6.62.25s4.93.1,6.63.09l2,0h.73Z" style="fill:#fff"></path><path d="M77.52,331.62l-.19,0-.54,0c-.47,0-1.14.07-2,.09-1.68.05-4,0-6.57,0s-4.88-.19-6.56-.31c-.83-.06-1.51-.12-2-.17l-.54-.06-.18,0h.19l.54,0,2,.11c1.68.08,4,.17,6.56.24s4.88.1,6.55.09l2,0h.73Z" style="fill:#fff"></path><path d="M77.27,335.46a4.14,4.14,0,0,1-.71.08c-.45,0-1.1.07-1.91.1-1.63.07-3.87.09-6.34.07s-4.72-.12-6.34-.23c-.81-.05-1.46-.1-1.91-.15l-.7-.09a3.74,3.74,0,0,1,.7,0l1.92.09c1.62.07,3.86.13,6.33.16s4.71,0,6.33,0l1.92,0Z" style="fill:#fff"></path><path d="M76.85,339.31a4.67,4.67,0,0,1-.66.07c-.43,0-1.06.08-1.82.11-1.54.06-3.67.09-6,.07s-4.47-.12-6-.22c-.77,0-1.39-.11-1.82-.15a3.48,3.48,0,0,1-.66-.1,4.24,4.24,0,0,1,.67,0l1.82.08c1.53.07,3.65.13,6,.16s4.47,0,6,0l1.82,0A3.17,3.17,0,0,1,76.85,339.31Z" style="fill:#fff"></path></g></svg>